<svg
  xmlns="http://www.w3.org/2000/svg"
  viewBox="0 0 700 650"
  width={700}
  height={650}
  preserveAspectRatio="xMidYMid meet"
  style={{
    width: "100%",
    height: "100%",
    transform: "translate3d(0px, 0px, 0px)",
    contentVisibility: "visible"
  }}
>
  <defs>
    <clipPath id="__lottie_element_214">
      <rect width={700} height={650} x={0} y={0} />
    </clipPath>
  </defs>
  <g clipPath="url(#__lottie_element_214)">
    <g
      
      style={{ display: "block" }}
    >
      <g>
        <path
          fill="rgb(0,111,215)"
          fillOpacity={1}
          d=" M0,-82.5 C45.5317497253418,-82.5 82.5,-45.5317497253418 82.5,0 C82.5,45.5317497253418 45.5317497253418,82.5 0,82.5 C-45.5317497253418,82.5 -82.5,45.5317497253418 -82.5,0 C-82.5,-45.5317497253418 -45.5317497253418,-82.5 0,-82.5z"
        />
      </g>
    </g>
    <g
      style={{ display: "none" }}
    >
      <g>
        <path
          strokeLinecap="round"
          strokeLinejoin="round"
          fillOpacity={0}
          stroke="rgb(0,0,0)"
          strokeOpacity={1}
          strokeWidth={6}
          d=" M12.621000289916992,5.081999778747559 C-2.296999931335449,-6.585999965667725 -10.79699993133545,0.414000004529953 -14.347999572753906,5.416999816894531"
        />
      </g>
    </g>
    <g>
      <g>
        <path
          strokeLinecap="round"
          strokeLinejoin="round"
          fillOpacity={0}
          stroke="rgb(0,0,0)"
          strokeOpacity={1}
          strokeWidth={6}
          d=" M-13.604000091552734,-1.3539999723434448 C-6.538000106811523,-11.065999984741211 4.960999965667725,-14.065999984741211 15.63700008392334,-6.605999946594238"
        />
      </g>
    </g>
    <g
      style={{ display: "block" }}
    >
      <g>
        <path
          fill="rgb(255,255,255)"
          fillOpacity={1}
          d=" M0,-17.91699981689453 C9.888392448425293,-17.91699981689453 17.91699981689453,-9.888392448425293 17.91699981689453,0 C17.91699981689453,9.888392448425293 9.888392448425293,17.91699981689453 0,17.91699981689453 C-9.888392448425293,17.91699981689453 -17.91699981689453,9.888392448425293 -17.91699981689453,0 C-17.91699981689453,-9.888392448425293 -9.888392448425293,-17.91699981689453 0,-17.91699981689453z"
        />
      </g>
    </g>
    <g
      
      style={{ display: "block" }}
    >
      <g >
        <path
          fill="rgb(36,36,36)"
          fillOpacity={1}
          d=" M0,-8.269499778747559 C4.563936710357666,-8.269499778747559 8.269499778747559,-4.563936710357666 8.269499778747559,0 C8.269499778747559,4.563936710357666 4.563936710357666,8.269499778747559 0,8.269499778747559 C-4.563936710357666,8.269499778747559 -8.269499778747559,4.563936710357666 -8.269499778747559,0 C-8.269499778747559,-4.563936710357666 -4.563936710357666,-8.269499778747559 0,-8.269499778747559z"
        />
      </g>
    </g>
    <g
      
      style={{ display: "block" }}
    >
      <g >
        <path
          fill="rgb(255,255,255)"
          fillOpacity={1}
          d=" M0,-17.91699981689453 C9.888392448425293,-17.91699981689453 17.91699981689453,-9.888392448425293 17.91699981689453,0 C17.91699981689453,9.888392448425293 9.888392448425293,17.91699981689453 0,17.91699981689453 C-9.888392448425293,17.91699981689453 -17.91699981689453,9.888392448425293 -17.91699981689453,0 C-17.91699981689453,-9.888392448425293 -9.888392448425293,-17.91699981689453 0,-17.91699981689453z"
        />
      </g>
    </g>
    <g
      
      style={{ display: "block" }}
    >
      <g>
        <path
          fill="rgb(36,36,36)"
          fillOpacity={1}
          d=" M0,-8.269499778747559 C4.563936710357666,-8.269499778747559 8.269499778747559,-4.563936710357666 8.269499778747559,0 C8.269499778747559,4.563936710357666 4.563936710357666,8.269499778747559 0,8.269499778747559 C-4.563936710357666,8.269499778747559 -8.269499778747559,4.563936710357666 -8.269499778747559,0 C-8.269499778747559,-4.563936710357666 -4.563936710357666,-8.269499778747559 0,-8.269499778747559z"
        />
      </g>
    </g>
  </g>
</svg>
