<svg xmlns="http://www.w3.org/2000/svg" version="1.0" width="600.000000pt" height="599.000000pt" viewBox="0 0 600.000000 599.000000" preserveAspectRatio="xMidYMid meet">
<g transform="translate(0.000000,599.000000) scale(0.100000,-0.100000)" fill="#000000" stroke="none">
<path d="M3016 5535 c-11 -8 -30 -15 -42 -15 -13 0 -26 -5 -29 -10 -4 -6 -13 -7 -23 -2 -31 15 -195 14 -270 -2 -40 -9 -98 -16 -127 -16 -58 0 -120 -28 -129 -58 -7 -21 -149 -143 -193 -165 -18 -10 -42 -17 -54 -17 -54 0 -193 -157 -255 -288 -20 -42 -52 -93 -71 -113 -34 -36 -35 -38 -22 -72 12 -34 10 -41 -25 -117 -21 -45 -41 -101 -44 -126 -4 -40 -3 -44 17 -44 20 0 22 4 16 28 -6 31 37 142 75 189 18 23 18 27 5 54 -21 40 -19 56 11 75 15 11 41 50 63 98 42 90 144 224 194 254 18 11 48 22 69 26 24 4 56 25 97 61 34 30 67 55 75 55 15 0 66 52 66 68 0 34 135 60 362 68 123 5 192 11 210 20 39 20 130 17 207 -6 36 -10 120 -26 186 -34 232 -29 401 -127 504 -291 22 -34 69 -98 105 -141 92 -110 131 -193 156 -334 36 -196 40 -223 35 -228 -2 -2 -25 14 -52 36 -58 48 -96 68 -158 82 -53 12 -124 66 -151 115 -14 27 -15 37 -5 68 13 39 9 57 -14 57 -15 0 -25 -22 -25 -55 0 -13 -4 -26 -9 -29 -16 -10 -28 18 -33 72 -6 60 -29 95 -50 74 -10 -10 -10 -17 0 -32 14 -23 16 -50 3 -50 -19 0 -32 31 -39 92 -5 46 -11 63 -22 63 -19 0 -25 -37 -11 -75 5 -16 6 -32 2 -34 -11 -7 -71 32 -71 46 0 7 -3 30 -6 51 -6 33 -4 37 14 37 28 0 45 59 32 115 -5 22 -9 41 -10 43 0 1 0 7 0 12 0 17 -28 11 -34 -7 -3 -10 -1 -35 4 -57 4 -21 7 -45 4 -52 -14 -47 -15 -47 -26 -36 -7 7 -16 12 -20 12 -11 0 -10 -54 2 -86 7 -18 7 -31 1 -37 -15 -15 -61 19 -61 45 0 31 -22 98 -32 98 -16 0 -21 -33 -10 -64 19 -49 0 -59 -68 -35 -30 10 -62 19 -72 19 -10 0 -24 11 -30 25 -14 31 -36 32 -40 3 -3 -22 -8 -23 -108 -26 -58 -1 -154 -12 -215 -24 -60 -11 -137 -24 -170 -28 -33 -4 -114 -22 -180 -39 -66 -17 -126 -31 -132 -31 -9 0 -11 13 -6 45 4 30 2 45 -5 45 -16 0 -33 -35 -36 -77 -4 -37 -44 -83 -73 -83 -16 0 -16 13 2 80 18 66 19 83 4 74 -19 -11 -47 -86 -55 -142 -5 -43 -13 -58 -43 -84 -47 -42 -51 -24 -17 76 30 87 30 86 12 86 -22 0 -76 -142 -76 -202 0 -16 -11 -37 -27 -53 -29 -28 -120 -64 -161 -65 -30 0 -133 -52 -174 -88 -18 -16 -51 -35 -72 -42 -22 -7 -61 -34 -88 -61 -27 -27 -57 -49 -67 -49 -29 0 -84 -43 -106 -82 -16 -30 -17 -39 -6 -52 16 -20 31 -12 31 17 0 11 12 33 26 48 21 22 32 26 59 22 29 -5 35 -2 48 24 26 48 95 106 121 99 17 -4 31 3 57 30 41 43 144 96 174 88 13 -3 83 22 183 66 148 64 275 104 497 157 68 16 170 27 393 43 150 11 154 11 190 -11 32 -19 54 -22 164 -24 105 -2 135 -7 171 -24 24 -12 55 -21 69 -21 14 0 88 -27 164 -61 77 -33 164 -67 194 -76 62 -16 126 -51 154 -82 11 -12 24 -21 30 -21 6 0 35 -16 64 -37 39 -27 56 -33 64 -25 9 9 7 17 -6 31 -11 13 -16 29 -13 41 3 12 -1 43 -9 68 -7 26 -14 62 -14 81 0 68 -43 248 -76 320 -19 40 -61 105 -94 145 -34 39 -85 107 -114 151 -57 87 -135 163 -200 198 -115 60 -234 101 -291 98 -30 -1 -206 30 -235 41 -44 18 -162 19 -184 3z"/>
<path d="M3445 5180 c-4 -6 -8 -42 -10 -81 -2 -52 1 -69 11 -69 23 0 35 38 32 97 -3 53 -18 78 -33 53z"/>
<path d="M3340 5160 c-17 -32 -3 -122 19 -118 13 3 16 15 15 68 -1 67 -14 87 -34 50z"/>
<path d="M3257 5164 c-12 -13 -8 -66 5 -62 24 8 34 37 17 53 -8 9 -18 12 -22 9z"/>
<path d="M2371 5091 c-44 -69 -67 -137 -51 -156 20 -24 30 -17 30 19 0 20 15 63 35 102 19 37 35 71 35 75 0 22 -20 5 -49 -40z"/>
<path d="M2485 5093 c-21 -31 -26 -94 -8 -100 7 -3 15 8 18 24 4 15 12 42 20 59 21 49 -1 62 -30 17z"/>
<path d="M2990 5085 c-9 -10 -10 -19 -3 -26 14 -14 45 0 41 19 -4 22 -23 25 -38 7z"/>
<path d="M2602 5053 c2 -17 10 -29 21 -31 15 -3 18 2 15 25 -2 17 -10 29 -21 31 -15 3 -18 -2 -15 -25z"/>
<path d="M3655 5069 c-4 -5 -2 -22 4 -37 5 -15 11 -38 13 -52 2 -14 9 -25 18 -25 12 0 14 11 12 49 -3 62 -28 96 -47 65z"/>
<path d="M2197 4991 c-9 -16 -17 -48 -17 -71 0 -34 3 -41 18 -38 13 3 16 12 14 36 -2 19 4 44 12 57 9 13 16 29 16 35 0 21 -26 9 -43 -19z"/>
<path d="M2466 4913 c-4 -9 0 -23 8 -32 13 -13 16 -11 26 13 13 36 13 36 -9 36 -10 0 -22 -8 -25 -17z"/>
<path d="M2054 4785 c-31 -47 -54 -169 -35 -188 20 -20 35 10 37 75 2 44 9 69 23 89 12 16 21 33 21 39 0 19 -30 10 -46 -15z"/>
<path d="M2851 4696 c-59 -15 -70 -42 -15 -33 22 4 56 7 77 7 39 0 52 22 21 34 -20 8 -29 7 -83 -8z"/>
<path d="M2610 4655 c0 -10 7 -15 18 -13 21 4 19 22 -2 26 -10 2 -16 -3 -16 -13z"/>
<path d="M2643 4618 c-29 -11 -53 -26 -53 -33 0 -8 -23 -15 -60 -18 -63 -7 -210 -67 -210 -86 0 -23 22 -19 83 14 41 22 85 38 118 42 30 3 57 11 62 17 5 7 12 5 22 -8 13 -17 17 -17 62 -3 26 8 67 20 91 26 24 7 42 17 40 22 -4 12 -5 12 -56 4 -20 -3 -50 -13 -65 -22 -32 -17 -41 -14 -31 10 3 9 24 22 45 27 21 6 39 15 39 20 0 14 -28 10 -87 -12z"/>
<path d="M2825 4630 c-4 -7 -2 -17 3 -22 13 -13 113 2 113 17 -1 14 -108 19 -116 5z"/>
<path d="M2448 4615 c-53 -8 -74 -17 -100 -41 -18 -17 -48 -41 -66 -53 -31 -21 -35 -41 -9 -41 7 0 40 23 75 52 53 43 71 52 113 56 31 3 53 10 56 19 8 20 6 20 -69 8z"/>
<path d="M2900 4565 c0 -22 -33 -35 -92 -35 -72 0 -188 -33 -273 -79 -38 -20 -101 -50 -140 -66 -80 -33 -103 -47 -200 -126 -102 -82 -193 -181 -262 -284 -33 -49 -92 -126 -131 -171 -68 -78 -202 -198 -249 -223 -27 -14 -30 -29 -7 -38 23 -8 86 25 174 91 48 35 78 52 84 46 12 -12 -32 -193 -64 -264 -23 -52 -40 -49 -40 7 0 15 -4 27 -9 27 -14 0 -20 -50 -10 -84 12 -43 11 -59 -5 -82 -15 -19 -15 -18 -40 6 -14 14 -31 49 -39 80 -8 29 -19 56 -25 58 -19 6 -24 -19 -12 -70 9 -36 25 -63 56 -96 l44 -46 30 32 c16 18 36 32 44 32 9 0 16 7 16 15 0 29 32 66 54 63 14 -2 22 3 24 17 5 24 32 65 43 65 6 0 39 -89 39 -107 0 -1 -13 0 -29 3 -26 6 -32 2 -55 -35 -30 -47 -32 -64 -11 -81 12 -10 13 -16 5 -24 -8 -8 -19 -2 -39 22 -23 29 -29 32 -39 19 -10 -12 -7 -20 16 -43 15 -16 42 -37 60 -46 32 -17 47 -61 20 -57 -27 3 -37 -2 -32 -15 3 -8 17 -16 31 -18 30 -3 40 -18 48 -70 7 -44 134 -193 224 -262 95 -73 98 -82 100 -283 l2 -172 -34 -15 c-19 -8 -53 -30 -75 -50 -22 -20 -44 -36 -49 -36 -6 0 -32 -24 -59 -52 -27 -29 -71 -63 -98 -76 -75 -35 -322 -298 -400 -427 -27 -44 -71 -116 -99 -160 -106 -168 -197 -343 -432 -820 -207 -419 -295 -605 -295 -621 0 -27 38 -15 45 13 3 16 87 191 186 390 98 200 179 365 179 368 0 27 270 532 340 635 20 30 53 84 73 120 53 96 99 156 181 240 40 41 96 102 123 136 33 39 70 71 107 90 53 28 56 28 73 11 22 -22 23 -88 5 -197 -7 -41 -15 -120 -17 -175 -7 -174 -46 -337 -134 -560 -41 -102 -81 -165 -106 -165 -14 0 -61 -68 -206 -297 -31 -48 -113 -175 -183 -282 -130 -199 -206 -322 -206 -334 0 -4 8 -7 18 -7 11 1 35 32 67 88 28 47 131 209 230 358 99 150 192 293 207 318 15 25 32 46 37 46 23 0 -7 -245 -49 -395 -21 -76 -97 -296 -124 -359 -9 -21 -16 -42 -16 -47 0 -5 126 -9 280 -9 276 0 280 0 280 21 0 78 109 115 195 66 28 -15 43 -32 50 -55 l9 -32 132 0 c108 0 133 3 138 15 3 8 3 21 0 29 -3 8 6 44 21 80 29 73 137 409 152 473 9 37 -3 63 -82 182 -64 98 -81 134 -120 252 -25 76 -45 147 -45 159 0 35 21 18 37 -30 26 -77 128 -190 172 -190 21 0 29 24 11 35 -5 3 -10 40 -10 81 0 59 3 74 15 74 12 0 15 -13 16 -57 1 -139 36 -199 41 -71 4 100 22 93 26 -9 3 -76 4 -83 23 -83 17 0 19 4 13 18 -11 25 -11 101 1 104 6 2 12 -29 15 -72 4 -61 8 -75 22 -78 16 -3 18 7 15 117 l-2 120 -23 -22 c-25 -23 -50 -12 -38 18 4 12 17 15 53 13 l48 -3 -3 -132 c-3 -117 -2 -134 13 -139 27 -11 39 10 26 47 -9 27 -8 35 5 50 13 15 14 22 5 33 -7 9 -11 38 -9 73 3 52 5 58 27 61 23 4 23 2 16 -45 -12 -82 -8 -203 8 -222 9 -9 15 -39 16 -73 0 -31 5 -118 11 -195 5 -76 10 -179 10 -230 0 -105 5 -123 32 -123 16 0 18 4 12 17 -4 10 -11 139 -16 286 -8 262 -7 269 12 285 17 14 19 22 11 49 -9 32 2 224 14 243 3 6 13 10 21 10 13 0 14 -10 9 -52 -9 -83 -11 -251 -2 -276 20 -54 29 -10 31 151 2 108 7 172 14 179 6 6 30 12 54 12 34 1 43 -3 46 -18 6 -28 -12 -40 -36 -25 -26 17 -33 10 -38 -38 -8 -69 -20 -348 -16 -361 3 -7 12 -12 21 -10 13 3 15 19 13 118 -3 151 7 224 31 228 17 3 18 -7 15 -159 -3 -139 -1 -164 12 -166 13 -3 15 23 18 174 3 175 10 213 36 213 15 0 13 -73 -5 -179 -10 -63 -12 -214 -2 -224 3 -4 12 -2 20 4 10 9 17 8 28 -1 12 -10 16 -10 19 1 14 44 19 88 27 214 13 208 19 257 32 252 15 -5 10 -89 -5 -98 -6 -4 -8 -11 -4 -17 3 -6 3 -83 -1 -173 l-6 -162 -34 -49 c-18 -28 -33 -54 -33 -59 0 -6 16 -35 35 -65 49 -76 120 -220 173 -349 43 -107 82 -207 82 -212 0 -2 237 -3 526 -3 453 0 525 2 521 14 -3 8 -11 34 -17 58 -6 24 -42 135 -79 248 -37 113 -78 238 -91 277 -22 68 -23 92 -3 80 4 -3 82 -156 173 -341 144 -292 168 -336 188 -336 27 0 27 4 3 44 -11 17 -67 132 -124 256 -58 124 -142 302 -187 395 -45 94 -93 193 -106 222 -23 47 -71 95 -157 156 -10 7 -22 28 -27 47 -4 19 -24 89 -43 155 -78 268 -97 375 -78 438 41 134 50 179 50 250 1 92 8 95 75 36 37 -33 46 -47 46 -74 0 -41 15 -53 30 -25 6 11 15 20 19 20 5 0 71 -70 148 -155 114 -127 155 -182 231 -307 50 -84 117 -205 148 -268 31 -63 87 -169 124 -235 37 -66 88 -160 115 -210 26 -49 76 -139 110 -200 123 -214 275 -512 275 -536 0 -13 38 -11 45 1 8 14 -186 382 -480 910 -29 52 -98 183 -153 290 -135 265 -213 402 -278 485 -78 101 -211 237 -269 275 -27 18 -61 43 -75 56 -14 12 -68 50 -120 85 -69 45 -106 63 -139 67 -35 4 -52 13 -83 45 -36 38 -42 40 -68 30 -24 -9 -32 -8 -46 8 -9 10 -25 21 -35 24 -17 6 -18 14 -11 88 4 45 6 127 4 182 l-3 101 60 48 c33 27 97 87 142 134 80 85 82 86 143 94 33 5 93 20 131 35 71 26 82 33 222 134 43 31 94 64 114 72 25 10 40 25 47 45 6 18 24 38 42 47 31 16 62 68 53 91 -2 6 6 30 18 53 17 34 20 51 15 94 -4 29 -10 90 -15 137 -8 94 -39 166 -116 275 -23 33 -56 88 -73 121 -24 47 -41 68 -75 87 -24 14 -86 71 -137 127 -51 55 -95 100 -99 100 -4 0 -15 -6 -25 -13 -15 -11 -9 -21 68 -101 46 -48 113 -107 147 -130 57 -37 67 -49 104 -122 22 -45 49 -94 61 -110 11 -16 40 -65 64 -108 38 -69 44 -89 45 -145 1 -36 6 -92 10 -123 7 -49 5 -61 -14 -92 -12 -20 -20 -40 -16 -46 12 -20 -6 -47 -45 -69 -24 -13 -42 -32 -46 -47 -4 -14 -20 -32 -38 -41 -34 -17 -128 -82 -200 -136 -49 -38 -200 -97 -248 -97 -29 0 -30 1 -23 33 4 17 9 63 10 101 l3 69 56 50 c34 30 56 57 56 69 0 19 13 72 41 164 14 48 11 70 -16 102 -21 25 -25 40 -25 97 0 107 -40 229 -66 202 -3 -3 4 -33 15 -68 22 -65 28 -129 12 -129 -5 0 -19 30 -32 68 -60 183 -154 331 -303 475 -110 108 -161 144 -294 211 -119 60 -201 92 -264 105 -182 36 -233 43 -320 43 -54 0 -100 4 -104 9 -9 14 -34 10 -34 -6z m102 -52 c8 -10 29 -47 46 -83 17 -36 63 -114 102 -175 79 -124 160 -297 214 -459 l37 -109 -38 -39 c-65 -67 -91 -82 -120 -69 -22 10 -25 9 -30 -9 -7 -28 -19 -25 -53 12 -24 26 -32 30 -42 20 -18 -18 -1 -40 59 -74 42 -24 56 -27 72 -18 19 9 21 8 21 -14 0 -14 5 -28 10 -31 11 -6 14 0 25 48 6 30 23 49 93 105 56 45 129 45 222 1 99 -47 128 -72 132 -116 2 -27 8 -39 21 -41 22 -4 23 32 3 85 -10 26 -16 99 -19 233 -3 117 -10 208 -17 228 -17 46 1 61 22 19 25 -50 75 -204 113 -354 26 -100 35 -158 35 -217 0 -52 5 -85 14 -95 22 -26 0 -169 -65 -416 l-41 -160 -3 -260 c-2 -143 -9 -300 -15 -350 -19 -152 -28 -274 -23 -295 9 -35 -38 -342 -64 -420 -9 -25 -33 -68 -53 -96 -56 -74 -125 -98 -370 -125 -63 -7 -112 -18 -122 -27 -15 -13 -48 -13 -250 -3 -319 15 -403 35 -481 114 -23 23 -54 65 -69 93 -40 74 -84 300 -87 444 -2 63 -5 119 -9 124 -6 10 -17 215 -28 511 -4 116 -11 187 -19 200 -7 11 -15 38 -18 60 -8 60 -28 139 -38 149 -5 6 -9 22 -9 37 0 29 -12 96 -35 189 -7 30 -16 87 -20 125 -4 39 -13 108 -21 154 -13 77 -12 124 2 219 9 60 24 33 25 -45 1 -117 21 -227 42 -231 15 -3 16 6 10 90 -5 87 -3 104 37 263 59 235 81 298 162 465 87 177 142 239 253 282 38 16 72 25 76 20 3 -4 11 -45 18 -92 14 -97 83 -425 106 -505 9 -29 22 -58 30 -65 22 -18 28 6 12 53 -34 97 -41 154 -40 312 1 232 30 313 119 341 52 16 49 16 66 -3z m364 -195 c81 -101 134 -185 196 -308 l58 -114 -92 -93 c-51 -51 -95 -93 -98 -93 -7 0 -26 87 -45 215 -25 163 -61 347 -76 383 -11 28 -12 72 -1 72 5 0 31 -28 58 -62z m299 -525 c33 -71 68 -173 61 -180 -2 -2 -38 12 -79 31 -54 27 -87 36 -124 36 -27 0 -53 3 -56 7 -7 6 151 161 165 163 3 0 19 -26 33 -57z m559 -247 c16 -12 40 -32 54 -45 l24 -24 -17 -61 c-9 -34 -17 -76 -19 -95 -2 -26 -12 -43 -42 -68 -21 -18 -42 -33 -46 -33 -16 0 -8 69 9 79 15 8 15 13 5 36 -17 36 -15 107 3 131 20 27 18 44 -5 44 -16 0 -20 7 -20 36 0 38 0 38 54 0z m-2266 -313 c37 -38 81 -93 99 -123 37 -62 68 -169 54 -183 -14 -14 -31 2 -31 29 0 42 -46 125 -106 192 -30 34 -60 62 -65 62 -4 0 -16 -14 -24 -30 -23 -44 -35 -28 -35 44 0 100 15 101 108 9z m2162 47 c6 -11 14 -64 17 -118 4 -76 2 -110 -12 -157 -16 -55 -27 -70 -141 -184 -85 -85 -128 -121 -135 -114 -6 6 -6 18 1 37 5 15 10 42 10 61 0 40 29 79 49 66 11 -7 9 -13 -8 -30 -21 -21 -28 -51 -13 -51 17 0 143 139 157 174 20 47 19 62 -5 96 -16 23 -18 34 -10 54 12 32 30 34 30 3 0 -23 17 -47 33 -47 10 0 -2 141 -14 154 -20 22 -52 -34 -124 -214 -36 -91 -51 -114 -66 -104 -15 9 82 265 126 334 38 61 85 78 105 40z m-2166 -161 c34 -40 35 -43 21 -70 -8 -15 -15 -46 -15 -69 0 -48 -15 -46 -36 5 -10 25 -11 40 -2 68 9 30 8 40 -5 61 -39 58 -12 62 37 5z m75 -98 c6 -10 13 -37 17 -60 5 -33 4 -41 -9 -41 -21 0 -47 43 -47 78 0 44 21 57 39 23z m1987 -6 c11 -28 -35 -109 -52 -92 -9 8 26 107 37 107 5 0 12 -7 15 -15z m-1882 -137 c29 -41 15 -51 -24 -20 -13 11 -20 24 -16 30 11 18 23 15 40 -10z m-63 -32 c24 -18 54 -36 67 -40 12 -4 27 -16 32 -27 9 -17 7 -19 -16 -19 -29 0 -93 46 -124 91 -28 38 -13 37 41 -5z m1769 -813 c-6 -76 -16 -142 -21 -148 -12 -12 -12 110 1 149 5 17 12 57 16 89 3 32 8 56 11 53 3 -3 0 -67 -7 -143z m320 66 c0 -33 -34 -189 -41 -189 -6 0 -6 181 0 198 3 8 41 0 41 -9z m47 -27 c24 -15 -17 -310 -45 -320 -17 -5 -15 84 3 168 8 36 14 86 15 113 0 47 4 53 27 39z m-549 -835 c-1 -23 -3 -36 -6 -29 -2 6 -10 12 -18 12 -17 0 -17 10 -4 45 14 37 30 21 28 -28z m-89 -64 c-4 -32 -13 -110 -18 -173 -12 -131 -27 -198 -43 -182 -6 6 -5 76 3 207 12 183 14 198 34 205 11 4 23 6 26 4 3 -2 2 -29 -2 -61z m71 23 c0 -3 -5 -8 -12 -12 -7 -4 -8 -3 -4 4 7 12 16 16 16 8z m-1013 -51 c12 -53 1 -58 -27 -12 -25 40 -25 57 -2 57 14 0 21 -12 29 -45z m753 30 c-13 -16 -40 -20 -40 -7 0 14 12 22 33 22 16 0 17 -3 7 -15z m-692 -68 c3 -56 -13 -81 -22 -34 -16 76 -15 98 2 95 13 -2 18 -16 20 -61z m758 31 c-4 -18 -13 -94 -21 -168 -16 -158 -22 -183 -37 -174 -7 4 -8 26 -4 63 4 31 11 109 15 174 6 84 12 122 22 128 25 16 31 10 25 -23z m170 -15 c-11 -11 -17 4 -9 23 7 18 8 18 11 1 2 -10 1 -21 -2 -24z m-521 -50 c-8 -81 -18 -113 -37 -113 -8 0 -9 26 -4 86 7 95 10 104 32 104 13 0 15 -12 9 -77z m511 -9 c-3 -9 -6 -18 -6 -20 0 -3 -4 -3 -10 1 -11 7 -2 35 12 35 6 0 7 -7 4 -16z m-1253 -558 c86 -36 109 -126 51 -192 -61 -68 -157 -56 -199 26 -27 51 -19 85 28 135 47 48 67 54 120 31z"/>
<path d="M2986 4122 c-2 -4 -10 -35 -17 -69 -19 -93 6 -144 63 -130 35 9 55 50 40 82 -6 14 -19 25 -28 25 -12 0 -14 -6 -9 -30 5 -23 3 -32 -10 -36 -24 -10 -37 15 -30 56 16 96 17 110 7 110 -6 0 -13 -3 -16 -8z"/>
<path d="M2377 3833 c-14 -14 -5 -24 51 -60 84 -53 162 -116 156 -125 -3 -4 -24 -8 -47 -8 -63 0 -104 -15 -154 -56 -71 -59 -129 -207 -85 -222 7 -2 12 5 12 17 0 37 62 151 98 181 24 19 51 31 81 35 25 3 68 9 94 13 44 8 52 6 93 -21 29 -19 57 -49 76 -83 16 -30 34 -51 39 -48 14 8 11 32 -7 58 -32 50 41 43 81 -7 13 -17 26 -29 28 -27 11 15 75 107 80 116 4 7 0 17 -7 23 -12 10 -19 4 -41 -33 -15 -25 -29 -46 -32 -46 -3 0 -16 9 -30 20 -14 11 -37 20 -51 20 -37 0 -117 42 -202 107 -95 72 -212 153 -220 153 -4 0 -10 -3 -13 -7z"/>
<path d="M3484 3455 c-23 -23 -23 -27 -11 -57 16 -40 44 -46 80 -18 33 26 35 63 5 84 -31 22 -45 20 -74 -9z"/>
<path d="M2910 3455 c0 -9 7 -27 16 -41 13 -18 15 -37 10 -77 -21 -160 -15 -207 27 -215 19 -4 25 32 6 43 -7 5 -8 45 -3 124 6 99 4 122 -10 149 -17 33 -46 44 -46 17z"/>
<path d="M2517 3422 c-37 -39 -35 -65 8 -88 34 -18 34 -18 60 6 32 30 33 73 3 94 -31 22 -40 20 -71 -12z"/>
<path d="M3700 3310 c-25 -35 -85 -71 -157 -94 -47 -16 -54 -16 -90 -1 -21 9 -55 27 -75 41 -20 14 -42 23 -47 19 -20 -12 7 -41 68 -74 34 -18 61 -36 61 -42 0 -12 -8 -12 -80 7 -61 15 -91 10 -76 -14 8 -13 87 -32 135 -32 30 0 44 -5 53 -20 16 -25 38 -26 38 -1 0 16 9 20 53 23 35 3 56 0 63 -9 16 -19 34 -16 34 5 0 11 20 28 55 47 52 27 67 46 45 60 -5 3 -27 -6 -49 -21 -27 -17 -48 -24 -63 -21 -13 3 -32 -1 -42 -9 -11 -8 -40 -14 -65 -14 l-46 1 70 30 c97 43 204 149 151 149 -8 0 -24 -13 -36 -30z"/>
<path d="M2723 3251 c-83 -100 -259 -112 -355 -23 -24 22 -28 23 -34 8 -9 -24 27 -60 89 -87 67 -30 154 -30 218 -2 48 22 149 110 149 131 0 25 -36 10 -67 -27z"/>
<path d="M3240 3036 c-78 -31 -100 -36 -205 -51 -86 -12 -124 -13 -175 -5 -36 6 -112 15 -170 20 -95 7 -109 6 -147 -11 -23 -11 -69 -49 -102 -85 -71 -75 -90 -127 -117 -314 -16 -112 -15 -198 1 -565 5 -109 38 -370 60 -479 39 -189 96 -232 357 -271 53 -8 109 -13 125 -10 15 3 134 7 263 9 257 4 308 11 416 61 73 33 77 39 103 125 17 58 51 248 65 365 17 133 16 804 -1 907 -18 113 -86 214 -184 278 -55 35 -60 37 -155 38 -63 1 -112 -3 -134 -12z m141 -161 c1 -71 1 -135 0 -141 -1 -13 -117 -27 -231 -28 l-75 -1 0 108 c1 92 -1 107 -15 105 -12 -3 -16 -23 -18 -108 l-3 -105 -154 -2 c-127 -2 -157 1 -170 13 -12 12 -15 40 -15 126 l0 111 78 -9 c162 -18 285 -6 427 41 44 15 89 23 123 22 l52 -2 1 -130z m123 96 c60 -41 111 -101 146 -170 16 -33 30 -65 30 -70 0 -7 -48 -9 -127 -8 l-128 2 -3 118 c-3 113 6 157 29 157 6 0 29 -13 53 -29z m-842 -20 c3 -3 8 -62 9 -131 l4 -125 -149 -3 -148 -3 7 33 c18 85 71 163 150 220 34 25 45 28 80 22 22 -3 43 -9 47 -13z m376 -542 c-58 -50 -138 -148 -138 -167 0 -24 18 -10 81 61 81 91 157 162 166 153 4 -3 -13 -28 -38 -54 -65 -68 -109 -121 -109 -132 0 -27 33 -2 99 76 68 81 95 103 107 91 3 -3 -22 -38 -55 -78 -34 -39 -61 -78 -61 -86 0 -26 27 -12 57 30 51 70 114 137 129 137 21 0 17 -24 -7 -46 -33 -29 -119 -134 -119 -145 0 -25 33 -3 74 49 59 77 115 127 129 113 7 -7 -10 -32 -53 -78 -71 -78 -85 -99 -70 -108 6 -4 27 13 48 37 73 84 121 128 137 122 25 -10 18 -23 -40 -76 -49 -44 -69 -78 -47 -78 4 0 35 25 69 55 55 50 83 66 83 49 0 -3 -22 -31 -50 -61 -27 -30 -50 -58 -50 -63 0 -23 22 -18 47 11 86 99 81 95 88 77 5 -12 -4 -31 -24 -57 -35 -44 -37 -51 -17 -51 8 0 28 17 45 37 25 30 31 34 37 20 3 -10 -3 -27 -15 -43 -12 -15 -21 -31 -21 -35 0 -19 29 -8 47 17 17 22 21 24 31 11 11 -13 7 -20 -20 -46 -26 -24 -30 -33 -20 -43 9 -9 17 -7 35 10 28 27 51 29 44 5 -12 -44 -11 -48 11 -51 24 -4 29 -21 10 -40 -9 -9 -6 -17 11 -36 23 -24 23 -30 17 -118 -7 -82 -28 -209 -41 -245 -3 -10 -11 -10 -32 -2 -82 31 -524 26 -878 -11 -49 -5 -142 -11 -204 -12 l-115 -3 -12 60 c-6 33 -15 105 -18 161 l-7 100 26 12 c20 9 24 17 20 35 -7 25 21 123 36 133 5 3 9 15 9 27 1 21 1 21 15 4 12 -16 11 -21 -6 -38 -13 -13 -19 -33 -19 -65 0 -63 24 -54 28 12 3 49 3 49 21 26 17 -23 17 -23 80 102 61 119 141 229 156 214 4 -4 -17 -40 -47 -80 -75 -101 -101 -159 -78 -173 6 -3 19 14 30 40 11 25 33 65 49 88 31 46 140 157 153 157 18 0 5 -23 -43 -76 -50 -55 -109 -140 -109 -156 0 -25 31 2 78 66 76 104 175 210 192 204 10 -3 3 -17 -26 -49 -65 -71 -124 -150 -124 -165 0 -25 17 -15 51 29 76 97 146 171 174 183 52 22 49 3 -7 -47z m-419 -121 c-7 -12 -26 -45 -44 -73 -18 -27 -35 -60 -39 -72 -8 -26 -26 -31 -26 -8 0 23 50 122 76 150 29 32 49 34 33 3z m768 -698 c1 -14 5 -73 8 -132 6 -87 10 -108 22 -108 13 0 15 19 12 128 l-4 127 25 -1 c14 -1 60 -3 103 -5 43 -2 80 -6 82 -9 7 -11 -24 -129 -45 -169 -16 -32 -30 -43 -86 -65 -68 -28 -209 -46 -326 -43 l-58 1 0 142 0 142 118 9 c148 13 147 13 149 -17z m-302 -131 l1 -137 -137 -7 c-76 -4 -147 -4 -158 0 -19 6 -21 15 -22 78 0 40 -4 95 -9 122 -5 29 -4 54 1 60 9 9 185 23 274 21 l50 -1 0 -136z m-361 89 c10 -49 15 -204 7 -216 -6 -11 -23 -10 -90 7 -143 34 -185 72 -206 184 l-7 36 73 4 c210 9 218 9 223 -15z"/>
<path d="M4240 3446 c0 -14 -8 -41 -17 -61 -12 -26 -14 -38 -6 -46 8 -8 16 -3 27 20 21 39 25 102 9 108 -8 3 -13 -5 -13 -21z"/>
<path d="M2460 4475 c-53 -23 -76 -45 -47 -45 18 0 147 57 147 65 0 11 -48 2 -100 -20z"/>
<path d="M3880 4442 c0 -10 5 -23 11 -29 8 -8 8 -13 0 -17 -20 -13 -12 -36 13 -36 21 0 24 5 24 40 1 29 -4 43 -18 50 -26 14 -30 13 -30 -8z"/>
<path d="M3990 4376 c0 -7 19 -26 43 -41 23 -15 52 -37 65 -48 18 -17 25 -18 35 -8 9 10 5 18 -23 42 -73 62 -120 84 -120 55z"/>
<path d="M3875 4310 c-7 -12 90 -120 107 -120 19 0 5 26 -39 74 -55 58 -59 61 -68 46z"/>
<path d="M3970 4295 c0 -14 5 -25 10 -25 20 0 101 -84 137 -142 23 -38 42 -58 55 -58 18 0 17 4 -9 51 -31 56 -161 199 -180 199 -7 0 -13 -11 -13 -25z"/>
<path d="M1846 4274 c-31 -31 -15 -49 25 -28 32 16 37 29 13 38 -21 8 -20 8 -38 -10z"/>
<path d="M1972 4240 c-60 -54 -44 -71 19 -18 27 22 49 45 49 50 0 18 -27 5 -68 -32z"/>
<path d="M2018 4205 c-40 -36 -81 -65 -92 -65 -27 0 -110 -70 -167 -141 -52 -65 -58 -79 -34 -79 8 0 32 24 54 54 43 58 100 108 171 148 50 29 160 124 160 139 0 20 -22 6 -92 -56z"/>
<path d="M4145 4240 c-7 -11 53 -96 74 -105 31 -12 29 12 -5 55 -40 50 -60 65 -69 50z"/>
<path d="M4232 4224 c2 -11 11 -20 22 -22 13 -3 17 1 14 14 -2 11 -11 20 -22 22 -13 3 -17 -1 -14 -14z"/>
<path d="M4310 4170 c0 -5 7 -10 15 -10 8 0 15 5 15 10 0 6 -7 10 -15 10 -8 0 -15 -4 -15 -10z"/>
<path d="M1599 4138 c-40 -42 -99 -132 -99 -153 0 -30 18 -14 69 65 29 44 59 80 66 80 7 0 18 6 24 14 9 11 8 15 -5 20 -22 9 -21 9 -55 -26z"/>
<path d="M1781 4139 c-31 -22 -46 -27 -55 -20 -18 15 -73 -29 -137 -109 -28 -36 -59 -69 -68 -73 -22 -11 -109 -146 -121 -188 -6 -18 -7 -42 -4 -51 7 -22 37 -23 54 -3 11 13 10 18 -6 29 -18 13 -17 16 11 72 17 33 50 79 76 104 25 25 63 69 84 98 37 50 82 89 91 79 2 -2 -18 -32 -46 -66 -27 -34 -50 -71 -50 -81 0 -10 -11 -25 -24 -33 -33 -22 -86 -118 -86 -156 0 -50 25 -37 42 22 27 95 246 378 282 364 18 -7 36 12 29 29 -8 21 -26 17 -72 -17z"/>
<path d="M4031 4160 c-11 -6 -4 -20 32 -61 26 -30 47 -60 47 -67 0 -8 11 -23 25 -34 14 -11 35 -37 45 -59 18 -35 50 -54 50 -29 0 12 -67 117 -77 122 -4 1 -25 29 -46 60 -47 69 -58 79 -76 68z"/>


<path d="M1883 4029 c-77 -74 -110 -119 -90 -119 8 0 22 9 32 20 9 10 27 18 38 17 16 -1 24 6 32 30 6 18 25 48 43 66 18 18 32 36 32 40 0 20 -32 1 -87 -54z"/>
<path d="M4215 4049 c-9 -14 44 -69 67 -69 28 0 21 16 -21 49 -26 21 -42 28 -46 20z"/>
<path d="M1322 3923 c-26 -24 -112 -189 -112 -217 0 -26 18 -46 41 -46 22 0 33 29 14 36 -18 7 -19 28 -2 74 20 54 43 95 71 121 42 39 30 68 -12 32z"/>
<path d="M1392 3886 c-31 -40 -86 -186 -74 -198 21 -21 39 0 44 51 3 34 16 69 37 102 17 28 31 55 31 60 0 17 -18 9 -38 -15z"/>
<path d="M1685 3808 c-37 -77 -43 -102 -22 -96 10 4 84 140 86 161 1 4 -6 7 -14 7 -10 0 -30 -29 -50 -72z"/>
<path d="M1600 3796 c-30 -59 -33 -92 -8 -84 12 4 68 135 60 142 -13 13 -22 2 -52 -58z"/>
<path d="M4294 3798 c4 -18 11 -61 16 -96 11 -72 15 -82 37 -82 12 0 14 6 9 28 -4 15 -11 52 -15 83 -9 60 -26 99 -42 99 -7 0 -9 -12 -5 -32z"/>
<path d="M4370 3803 c0 -10 4 -34 9 -53 5 -19 12 -47 15 -62 5 -20 13 -28 27 -28 16 0 19 4 15 17 -4 9 -11 37 -17 62 -15 72 -19 81 -35 81 -8 0 -14 -8 -14 -17z"/>
<path d="M4460 3781 c0 -43 17 -81 36 -81 12 0 15 5 9 23 -3 12 -10 35 -14 51 -9 41 -31 46 -31 7z"/>
<path d="M1370 3611 c-12 -23 -3 -54 14 -48 14 5 21 67 7 67 -6 0 -15 -9 -21 -19z"/>
<path d="M1183 3600 c-30 -47 -28 -150 3 -150 12 0 14 8 9 43 -5 30 -2 55 9 81 19 46 19 46 3 46 -7 0 -18 -9 -24 -20z"/>
<path d="M1273 3586 c-16 -34 -13 -66 6 -66 5 0 12 15 16 33 4 17 9 40 11 50 9 31 -16 18 -33 -17z"/>
<path d="M1493 3605 c-3 -9 -3 -18 0 -21 9 -9 27 6 27 22 0 19 -19 18 -27 -1z"/>
<path d="M4386 3515 c-4 -36 -15 -93 -26 -128 -11 -34 -20 -73 -20 -85 0 -16 -22 -46 -65 -88 -50 -51 -61 -66 -48 -71 12 -5 38 16 88 69 57 59 72 81 72 104 -1 16 7 64 16 106 21 95 22 158 3 158 -9 0 -15 -20 -20 -65z"/>
<path d="M4566 3553 c-3 -3 -6 -16 -6 -27 0 -26 -34 -120 -55 -152 -17 -27 -19 -50 -5 -59 16 -10 90 163 90 213 0 22 -13 36 -24 25z"/>
<path d="M4470 3514 c-6 -14 -10 -35 -10 -47 0 -12 -10 -50 -22 -84 -22 -63 -19 -90 6 -62 32 35 71 219 46 219 -6 0 -15 -12 -20 -26z"/>
<path d="M4606 3440 c-19 -49 -20 -60 -3 -60 19 0 44 77 30 91 -7 7 -15 -2 -27 -31z"/>
<path d="M1485 3373 c10 -59 37 -132 58 -154 29 -31 39 -12 17 32 -11 21 -26 65 -34 97 -9 39 -18 58 -30 60 -15 3 -16 -2 -11 -35z"/>
<path d="M1417 3343 c-21 -20 24 -123 54 -123 24 0 24 8 -1 45 -11 17 -20 37 -20 46 0 19 -24 42 -33 32z"/>
<path d="M4515 3242 c-44 -43 -98 -91 -119 -108 -48 -38 -42 -67 6 -32 57 42 217 201 212 210 -9 15 -18 9 -99 -70z"/>
<path d="M4443 3249 c-26 -28 -74 -67 -105 -86 -57 -35 -67 -46 -49 -57 23 -14 221 151 221 184 0 20 -19 9 -67 -41z"/>
<path d="M1620 3171 c0 -22 48 -66 98 -89 29 -14 34 -14 42 -2 7 11 0 19 -31 34 -22 10 -50 32 -62 47 -24 33 -47 38 -47 10z"/>
<path d="M1505 3140 c-6 -10 70 -70 123 -96 35 -16 66 -12 60 8 -3 7 -16 15 -29 19 -14 3 -48 23 -76 43 -52 37 -68 43 -78 26z"/>
<path d="M1436 3091 c-10 -16 12 -58 41 -79 69 -49 184 -71 197 -37 3 10 -1 15 -12 15 -44 0 -99 25 -142 66 -46 43 -73 54 -84 35z"/>
<path d="M4227 3072 c-18 -19 -23 -52 -9 -52 9 0 44 36 56 58 11 19 -29 15 -47 -6z"/>
<path d="M1750 3036 c0 -21 50 -57 74 -54 31 5 34 38 3 38 -14 0 -30 7 -37 15 -16 19 -40 19 -40 1z"/>
<path d="M1714 2968 c-8 -12 22 -38 44 -38 7 0 12 7 10 16 -4 21 -45 37 -54 22z"/>
<path d="M1820 2926 c0 -8 4 -17 9 -20 11 -7 33 18 24 27 -12 12 -33 7 -33 -7z"/>
<path d="M4286 1915 c-4 -36 -20 -104 -36 -152 -34 -100 -36 -116 -14 -111 20 4 72 161 80 243 5 47 3 63 -8 73 -13 10 -16 3 -22 -53z"/>





<path d="M3145 161 c-9 -16 3 -31 26 -31 14 0 19 6 17 17 -4 20 -33 29 -43 14z"/>
<path d="M2921 105 c-57 -29 -116 -65 -130 -79 l-26 -26 43 0 c23 0 42 3 42 8 0 10 115 86 173 113 26 13 47 27 47 31 0 20 -53 3 -149 -47z"/>

<path d="M3073 92 c-20 -16 -43 -60 -43 -83 0 -5 11 -9 25 -9 21 0 25 5 25 29 0 20 9 36 25 49 14 11 25 23 25 26 0 12 -36 5 -57 -12z"/>
</g>
</svg>