<?xml version="1.0" standalone="no"?>
<!DOCTYPE svg PUBLIC "-//W3C//DTD SVG 20010904//EN"
 "http://www.w3.org/TR/2001/REC-SVG-20010904/DTD/svg10.dtd">
<svg version="1.0" xmlns="http://www.w3.org/2000/svg"
 width="600.000000pt" height="680.000000pt" viewBox="0 0 600.000000 680.000000"
 preserveAspectRatio="xMidYMid meet">
<g transform="translate(0.000000,680.000000) scale(0.100000,-0.100000)"
fill="#000000" stroke="none">
<path d="M2236 6791 c-3 -4 -35 -11 -72 -15 -40 -4 -83 -16 -108 -30 -22 -12
-66 -29 -96 -36 -30 -7 -64 -18 -76 -25 -11 -7 -40 -19 -65 -26 -24 -7 -56
-21 -71 -31 -14 -10 -29 -18 -33 -18 -3 0 -37 -20 -75 -45 -38 -25 -72 -45
-75 -45 -4 0 -25 -13 -49 -29 -23 -16 -64 -41 -90 -56 -69 -39 -192 -147 -323
-284 -167 -176 -255 -307 -392 -585 -102 -207 -121 -261 -141 -411 -13 -101
-13 -523 1 -634 15 -124 -3 -172 -98 -275 -41 -43 -88 -99 -105 -125 -18 -25
-54 -72 -81 -103 -47 -54 -117 -177 -117 -205 0 -7 -8 -27 -18 -45 -10 -18
-29 -71 -41 -118 -13 -47 -29 -97 -37 -111 -7 -14 -23 -66 -34 -115 -12 -49
-26 -93 -31 -99 -12 -12 -12 -455 0 -455 5 0 11 -12 14 -27 15 -79 60 -209
101 -297 25 -54 46 -103 46 -108 0 -20 94 -165 133 -205 22 -23 54 -47 71 -54
17 -7 49 -25 71 -41 22 -15 65 -33 95 -39 30 -6 75 -16 100 -22 65 -17 849
-15 910 2 86 23 141 24 222 2 43 -12 87 -21 98 -21 13 0 82 -60 188 -163 182
-178 212 -203 318 -264 42 -25 75 -52 82 -68 17 -37 15 -147 -4 -208 -26 -80
-40 -90 -139 -98 -47 -4 -98 -11 -113 -16 -15 -6 -45 -16 -67 -22 -22 -7 -58
-21 -80 -31 -49 -24 -238 -68 -363 -85 -51 -7 -102 -19 -115 -27 -12 -8 -34
-18 -49 -22 -41 -10 -137 -94 -241 -211 -86 -97 -136 -178 -167 -265 -7 -19
-32 -88 -55 -153 -23 -65 -48 -152 -55 -195 -7 -42 -21 -94 -31 -114 -28 -55
-25 -85 11 -103 33 -17 66 -20 75 -5 3 6 15 10 25 10 10 0 28 13 39 28 19 28
25 29 123 36 l103 7 27 -32 c50 -59 49 -59 669 -59 l567 0 5 23 c3 12 8 49 12
82 11 111 15 125 33 125 9 0 30 -14 46 -30 16 -17 33 -30 38 -30 18 0 6 -29
-37 -90 -25 -35 -45 -68 -45 -72 0 -4 13 -8 28 -8 26 0 31 6 53 63 27 69 48
80 87 47 20 -16 21 -22 10 -39 -7 -12 -16 -21 -20 -21 -5 0 -8 -7 -8 -15 0
-21 13 -19 35 5 25 28 55 25 95 -10 26 -22 45 -29 75 -29 l40 -1 -40 19 c-23
11 -57 40 -80 71 -29 37 -58 61 -107 86 -49 25 -81 50 -122 99 l-56 66 0 71
c0 40 7 98 16 129 12 43 15 77 10 132 -7 73 -8 74 -70 141 -37 40 -80 102
-106 152 l-43 83 43 173 c32 130 44 199 47 278 2 58 6 111 8 118 3 9 28 0 82
-28 99 -50 163 -88 184 -106 28 -25 38 5 41 117 3 96 4 104 23 104 19 0 20 -6
17 -111 -3 -91 -1 -112 12 -123 9 -8 16 -12 16 -9 0 115 10 222 21 229 28 18
42 10 35 -19 -3 -15 -9 -73 -12 -130 l-7 -102 31 6 c31 6 32 6 26 -25 -4 -20
-2 -31 5 -31 22 0 38 48 49 146 13 112 25 154 45 154 16 0 12 -85 -9 -205 -21
-112 -21 -110 -5 -110 18 0 39 62 47 139 3 33 12 88 18 121 11 50 16 61 35 63
20 3 22 0 17 -25 -3 -15 -8 -50 -11 -78 -10 -75 -34 -204 -46 -246 -13 -41 -5
-79 12 -62 15 15 49 146 65 253 21 147 21 145 60 159 20 7 38 10 41 7 4 -3 -5
-36 -20 -73 -14 -38 -31 -95 -37 -128 -20 -101 -55 -225 -77 -273 -19 -40 -7
-57 15 -23 26 38 69 168 121 369 14 51 63 143 75 139 6 -2 10 -10 9 -18 -8
-47 -116 -439 -128 -463 -17 -34 -19 -56 -5 -56 18 0 76 161 131 363 32 115
51 159 64 146 3 -4 -5 -47 -19 -95 -13 -49 -37 -134 -52 -189 -15 -55 -47
-147 -71 -203 -42 -98 -48 -139 -21 -130 6 2 15 11 18 19 4 8 13 25 20 39 7
14 28 68 45 120 18 52 58 169 90 260 31 91 58 176 59 190 1 14 5 31 9 37 10
16 47 17 47 2 0 -33 -193 -602 -213 -627 -7 -9 -7 -16 1 -24 8 -8 22 11 51 76
23 48 47 106 55 129 8 23 21 58 29 77 8 19 20 67 27 107 21 130 100 283 100
195 0 -62 -112 -436 -162 -545 -25 -52 -29 -70 -20 -79 16 -16 23 -6 55 72 25
63 30 84 42 164 3 21 18 68 34 105 15 36 31 75 35 85 3 10 9 16 13 12 11 -10
3 -95 -12 -135 -7 -20 -26 -76 -41 -126 -15 -49 -32 -96 -37 -103 -5 -7 -7
-15 -4 -18 16 -16 34 10 55 81 35 117 72 163 72 88 0 -58 19 -115 48 -145 29
-32 44 -35 62 -13 10 13 10 19 -4 33 -19 22 -21 42 -3 42 18 0 60 -32 153
-118 l78 -73 -33 -62 c-38 -69 -140 -208 -156 -212 -74 -18 -156 -50 -180 -71
l-30 -27 39 7 c22 4 55 18 75 32 20 13 41 24 48 24 22 0 25 -20 5 -38 -20 -17
-42 -96 -42 -151 0 -16 9 -48 20 -72 11 -24 20 -56 20 -70 0 -25 -45 -138 -59
-149 -3 -3 -28 -31 -55 -62 -26 -31 -70 -74 -97 -95 -27 -20 -49 -41 -49 -45
0 -4 15 -8 34 -8 37 0 73 33 136 125 82 121 143 173 154 133 10 -40 33 -103
64 -175 l34 -83 657 0 c625 0 659 1 674 18 23 26 21 56 -9 137 -68 184 -85
234 -104 315 -10 44 -63 187 -83 226 -27 52 -146 182 -238 262 -86 73 -195
140 -230 142 -8 0 -38 11 -65 25 -29 15 -82 30 -129 37 -92 12 -181 50 -271
114 -34 24 -65 44 -70 44 -5 0 -33 18 -62 40 -29 22 -60 40 -70 40 -26 1 -92
55 -118 97 -14 23 -24 54 -24 78 0 46 31 139 56 166 21 24 131 79 156 79 50 0
183 93 290 203 66 68 120 157 148 242 7 22 17 45 21 51 5 6 20 54 33 107 14
58 38 122 62 164 22 37 46 84 54 103 8 20 25 52 37 71 24 39 149 129 179 129
10 0 53 19 94 42 41 22 102 55 135 73 84 45 271 160 323 198 96 70 205 172
236 221 54 84 110 177 153 251 22 39 60 104 84 145 56 96 57 97 81 210 22 103
36 343 20 363 -5 7 -15 48 -22 92 -20 120 -57 187 -209 375 -98 120 -131 153
-184 181 -21 11 -51 32 -67 46 -35 30 -167 112 -267 164 -40 20 -86 47 -102
58 -16 12 -36 21 -44 21 -9 0 -19 5 -22 10 -4 6 -34 24 -68 41 -90 46 -168
125 -213 217 -31 65 -84 146 -137 212 -20 25 -72 101 -113 167 -21 35 -42 63
-46 63 -5 0 -8 7 -8 15 0 8 -4 15 -9 15 -6 0 -31 29 -56 65 -62 87 -103 131
-213 233 -63 59 -107 87 -302 189 -58 31 -117 64 -132 74 -14 11 -31 19 -38
19 -6 0 -35 11 -63 24 -138 65 -196 85 -289 97 -54 7 -98 16 -98 21 0 11
-1047 10 -1054 -1z m-9 -78 c-4 -3 -10 -3 -14 0 -3 4 0 7 7 7 7 0 10 -3 7 -7z
m-40 -14 c-26 -15 -225 -89 -240 -89 -22 1 22 21 131 60 107 39 142 48 109 29z
m1148 -23 c55 -15 123 -34 150 -43 63 -20 581 -274 653 -320 75 -47 147 -117
195 -187 22 -33 63 -85 91 -117 28 -31 63 -76 77 -100 55 -91 149 -287 170
-354 12 -38 30 -86 40 -106 18 -37 12 -59 -18 -59 -57 0 -193 111 -193 157 0
22 -18 43 -37 43 -23 0 -14 -40 19 -86 23 -33 29 -47 21 -55 -9 -9 -19 -6 -39
10 -15 11 -33 21 -40 21 -8 0 -14 10 -14 24 0 14 -4 27 -9 30 -4 3 -11 23 -15
43 -8 47 -30 77 -51 70 -21 -9 -19 -36 9 -100 27 -59 25 -67 -11 -67 -20 0
-28 9 -41 43 -9 23 -36 83 -61 132 -24 50 -54 128 -67 174 -23 81 -38 111 -55
111 -19 0 -7 -55 26 -126 19 -40 35 -87 35 -103 0 -17 13 -51 30 -77 31 -50
31 -74 -2 -52 -25 17 -40 45 -75 137 -28 75 -54 100 -81 78 -10 -8 -10 -13 3
-27 8 -9 20 -32 26 -51 7 -19 18 -41 26 -51 29 -34 -9 -29 -95 12 -135 65
-407 151 -592 187 -57 11 -80 21 -95 40 -25 30 -54 22 -62 -18 -3 -16 -12 -34
-21 -41 -12 -10 -17 -9 -31 11 -9 13 -28 37 -43 52 l-27 29 -53 -19 c-30 -11
-111 -24 -188 -31 -102 -9 -154 -19 -217 -42 -106 -38 -131 -36 -152 18 -23
58 -40 77 -57 63 -21 -18 -17 -41 16 -81 l30 -36 -40 -21 -40 -21 -20 20 c-11
11 -31 45 -44 74 -23 53 -42 74 -53 62 -10 -9 18 -119 34 -138 9 -10 13 -24
10 -31 -7 -18 -60 -33 -65 -18 -2 5 -14 25 -27 43 -13 18 -34 50 -45 71 -21
39 -42 44 -48 13 -2 -10 10 -47 28 -82 17 -36 29 -72 26 -80 -3 -8 -19 -14
-40 -14 -32 0 -36 4 -60 55 -15 29 -30 65 -36 80 -12 31 -23 32 -44 0 -23 -35
-21 -41 29 -98 25 -29 44 -58 43 -66 -4 -22 -58 -33 -86 -19 -24 12 -52 66
-52 98 0 9 -8 25 -19 34 -17 16 -20 16 -35 1 -26 -26 -19 -69 20 -126 l36 -54
-29 -22 c-43 -35 -184 -127 -216 -141 -35 -15 -38 -13 -78 48 -18 28 -38 50
-46 50 -15 0 -17 -16 -3 -25 6 -3 10 -16 10 -28 0 -12 11 -39 25 -60 27 -39
26 -57 -5 -57 -13 0 -31 26 -63 88 -55 107 -76 174 -86 285 -1 4 -8 7 -17 7
-15 0 -16 -9 -11 -75 8 -85 34 -170 83 -269 35 -68 38 -101 10 -90 -8 3 -17 1
-21 -5 -3 -6 -16 -11 -28 -11 -19 0 -29 14 -55 75 -18 42 -40 104 -48 138 -8
34 -22 77 -30 95 -8 18 -13 36 -10 40 2 4 0 14 -5 22 -8 13 -12 12 -25 -5 -25
-32 -10 -108 35 -185 49 -83 99 -192 107 -235 6 -36 -9 -75 -31 -75 -16 0 -48
50 -66 105 -7 22 -19 47 -26 55 -11 12 -15 12 -30 -3 -16 -15 -15 -20 9 -69
15 -29 34 -73 44 -96 17 -44 17 -44 -8 -68 -16 -16 -30 -23 -42 -18 -17 7 -69
81 -106 153 -18 37 -22 40 -40 29 -11 -7 -20 -18 -20 -25 0 -13 28 -65 86
-161 39 -66 42 -99 13 -136 -28 -35 -59 -31 -72 9 -6 17 -21 47 -34 68 -20 32
-27 36 -39 27 -21 -18 -18 -37 21 -106 38 -68 43 -104 20 -147 -19 -36 -199
-238 -313 -351 -64 -63 -95 -87 -106 -83 -15 6 -15 9 -1 37 15 29 14 35 -15
125 -27 86 -30 108 -30 223 0 94 5 147 20 202 15 58 20 108 20 221 0 161 2
170 70 314 23 50 46 100 51 113 5 12 31 55 57 95 27 39 53 83 57 97 22 72 57
121 122 170 40 30 87 77 114 116 44 62 143 151 255 229 35 25 73 40 125 51 79
16 127 47 100 63 -11 7 -1 18 40 44 80 51 123 70 244 112 61 20 144 53 185 72
41 19 95 42 120 50 56 20 332 31 700 28 254 -2 269 -3 365 -29z m122 17 c-4
-3 -10 -3 -14 0 -3 4 0 7 7 7 7 0 10 -3 7 -7z m104 -39 c33 -15 58 -29 56 -31
-2 -2 -33 10 -68 26 -35 17 -60 30 -55 31 5 0 35 -12 67 -26z m-1820 -118
c-14 -16 -54 -29 -45 -14 3 5 16 13 28 18 29 12 30 12 17 -4z m2324 -106 c3
-6 -1 -7 -9 -4 -18 7 -21 14 -7 14 6 0 13 -4 16 -10z m-2656 -113 c-2 -2 -31
-28 -64 -57 l-60 -54 55 57 c30 31 59 57 64 57 5 0 7 -1 5 -3z m-299 -302
c-30 -30 -56 -53 -58 -50 -3 2 19 29 48 60 30 30 56 53 59 50 2 -3 -19 -30
-49 -60z m-149 -152 c-5 -10 -17 -27 -26 -38 -16 -19 -16 -19 -4 5 13 27 29
50 36 50 2 0 -1 -8 -6 -17z m2594 -348 c39 -11 64 -12 127 -4 95 13 130 9 228
-26 53 -19 108 -29 195 -36 66 -5 136 -14 155 -20 19 -5 76 -16 127 -23 65
-10 116 -25 180 -54 48 -22 122 -48 163 -57 41 -9 98 -24 125 -32 62 -18 344
-156 406 -198 47 -32 55 -36 168 -77 59 -21 78 -36 221 -178 174 -173 215
-232 257 -369 24 -79 25 -96 20 -211 -5 -116 -8 -131 -42 -210 -33 -77 -86
-174 -169 -307 -53 -85 -152 -205 -215 -261 -53 -46 -63 -51 -82 -42 -23 13
-32 8 -35 -17 -9 -56 -18 -66 -133 -141 -280 -182 -329 -212 -376 -232 -80
-35 -155 -58 -160 -50 -10 16 58 205 80 225 12 11 50 45 85 75 34 30 68 60 74
65 6 6 55 44 109 84 54 41 101 80 104 88 3 8 -6 26 -20 41 -23 24 -25 32 -17
62 5 19 13 54 19 76 18 67 13 90 -35 187 -49 99 -61 117 -77 117 -19 0 4 -82
39 -138 34 -52 36 -59 30 -116 -14 -151 -30 -170 -79 -94 -22 35 -27 53 -27
108 l0 65 -91 115 c-50 63 -95 123 -100 133 -12 21 -2 40 17 33 8 -3 61 3 117
14 56 10 120 20 142 22 31 2 41 7 42 23 2 15 -11 28 -50 52 -80 48 -294 238
-467 414 -235 238 -354 321 -603 416 -243 92 -401 116 -737 110 -187 -3 -258
-8 -300 -21 -30 -9 -122 -34 -205 -56 -149 -39 -247 -76 -380 -142 -38 -20
-116 -50 -172 -68 -112 -35 -134 -50 -112 -76 12 -14 9 -20 -21 -46 -19 -16
-61 -48 -94 -70 -86 -60 -312 -234 -379 -292 -49 -44 -157 -181 -157 -201 0
-3 -17 -32 -38 -63 -71 -105 -191 -329 -247 -464 -50 -118 -59 -149 -77 -273
-11 -77 -21 -176 -22 -220 -3 -94 -16 -127 -62 -151 -50 -27 -44 -49 24 -83
31 -16 72 -32 89 -36 18 -3 33 -11 33 -17 0 -5 9 -22 19 -37 14 -19 20 -47 22
-101 2 -41 0 -80 -4 -87 -4 -6 -48 -14 -100 -18 -84 -6 -98 -5 -136 14 -46 24
-84 20 -79 -7 5 -25 98 -44 208 -42 86 1 147 -9 245 -38 39 -11 47 -42 11 -42
-29 0 -33 -11 -11 -30 9 -8 28 -10 50 -6 32 6 53 -2 178 -69 138 -74 275 -170
262 -183 -4 -4 -61 -8 -128 -9 -67 0 -196 -11 -286 -23 -124 -16 -191 -20
-274 -15 -60 3 -113 7 -116 8 -3 1 -51 -5 -106 -12 -199 -27 -325 4 -397 99
-21 27 -41 44 -51 42 -32 -5 -67 31 -143 146 -85 128 -106 171 -155 317 l-34
100 1 235 c0 224 2 239 27 321 14 47 44 116 66 155 23 38 71 129 107 201 60
120 73 138 132 189 36 30 77 72 92 92 15 20 134 144 266 275 176 175 256 247
304 275 54 31 71 48 101 100 65 111 78 119 135 75 l35 -26 62 64 c50 51 74 68
121 84 32 10 82 36 111 56 29 20 75 49 102 64 26 16 64 38 83 51 39 26 121 54
159 54 13 0 94 36 178 80 120 62 169 82 221 90 37 6 103 26 147 45 44 18 139
51 210 71 152 45 254 53 363 31 52 -11 82 -12 109 -5 21 5 56 13 78 18 22 5
65 20 95 34 66 30 64 30 125 11z m1385 -185 c19 -11 29 -19 22 -20 -14 0 -72
28 -72 35 0 9 15 4 50 -15z m-1176 -465 c127 -190 217 -421 230 -595 10 -116
28 -211 40 -207 6 2 19 30 28 63 19 68 24 357 9 459 -16 103 -18 198 -3 203
41 13 217 -255 320 -486 17 -40 35 -85 38 -100 3 -15 15 -54 26 -87 37 -109
68 -269 90 -466 16 -145 -2 -435 -32 -529 -25 -74 -46 -213 -60 -380 -29 -363
-52 -462 -127 -561 -62 -82 -169 -163 -148 -111 16 37 16 60 0 115 -16 55 -19
58 -83 93 -37 21 -94 54 -128 75 -70 43 -189 99 -213 99 -9 1 -34 8 -56 16
-71 27 -240 73 -306 83 -116 19 -198 14 -343 -24 -74 -19 -163 -48 -198 -66
-107 -54 -407 -265 -408 -286 0 -17 17 -17 23 0 3 8 40 36 84 62 43 27 127 79
186 117 175 112 328 158 525 158 101 0 134 -5 242 -34 163 -44 237 -72 397
-152 164 -83 243 -145 243 -191 0 -18 -4 -33 -9 -33 -5 0 -15 -16 -21 -35 -6
-19 -15 -37 -19 -39 -16 -10 -151 34 -251 82 -442 211 -485 227 -598 211 -108
-15 -336 -125 -402 -194 -62 -65 -139 -115 -245 -159 -49 -21 -97 -40 -106
-43 -9 -2 -39 15 -72 41 -71 59 -81 59 -75 1 7 -58 -5 -58 -79 -4 -134 100
-304 289 -316 354 -3 17 -10 53 -16 82 -5 29 -19 74 -31 100 -26 57 -65 198
-75 268 -4 28 -20 93 -35 145 -31 103 -43 221 -23 227 6 2 14 -6 18 -19 9 -29
55 -98 66 -98 4 0 9 105 11 233 4 223 5 237 36 353 17 67 41 143 52 169 11 25
29 83 41 127 12 48 37 108 60 147 22 36 42 77 45 91 9 41 32 75 51 75 13 0 17
-6 14 -20 -2 -11 -3 -146 -2 -300 1 -262 11 -385 31 -385 4 0 28 23 53 50 25
28 49 50 54 50 11 0 38 -12 152 -69 l73 -36 -93 -8 c-118 -11 -359 -76 -359
-97 0 -4 7 -13 15 -20 11 -9 27 -6 80 14 106 43 200 55 385 51 177 -4 270 -18
270 -40 0 -24 -22 -30 -110 -32 -383 -8 -469 -12 -520 -27 -30 -9 -70 -16 -87
-16 -18 0 -33 -4 -33 -9 0 -5 26 -30 57 -55 65 -51 91 -57 258 -59 94 0 108 2
233 46 168 58 259 119 264 176 2 25 8 37 21 39 13 3 25 -13 47 -63 17 -37 30
-72 30 -79 0 -7 -16 -20 -35 -29 -40 -19 -45 -41 -14 -58 38 -20 199 67 199
108 0 16 -5 16 -31 3 -24 -14 -24 -5 1 28 65 85 161 247 182 307 18 54 23 82
18 122 -6 60 -14 71 -35 53 -11 -9 -15 -33 -15 -90 0 -86 -30 -170 -78 -222
-39 -43 -71 -36 -34 6 22 25 62 129 62 159 -1 25 -25 62 -33 50 -3 -5 -5 -30
-5 -57 0 -37 -6 -54 -25 -75 -13 -14 -30 -37 -37 -49 -23 -46 -62 -53 -277
-47 -244 6 -318 21 -426 88 -41 26 -80 47 -87 47 -41 0 74 322 224 626 77 156
193 361 231 409 9 11 38 63 65 116 47 92 72 120 85 99 4 -6 3 -15 0 -20 -4 -6
-13 -59 -21 -118 -8 -59 -22 -134 -31 -167 -8 -33 -21 -100 -29 -150 -26 -176
-35 -221 -62 -330 -26 -106 -30 -145 -13 -145 14 0 78 140 125 272 24 67 60
168 80 222 20 55 41 129 47 165 17 95 44 143 64 111 9 -14 13 -805 5 -845 -8
-39 -31 -43 -73 -11 -19 14 -39 26 -45 26 -21 0 -13 -40 14 -75 23 -30 24 -37
15 -72 -17 -58 -14 -70 17 -76 36 -7 52 8 52 49 0 45 122 299 193 400 29 44
73 115 97 159 24 44 58 105 76 135 18 30 46 92 62 137 16 44 46 109 66 142 19
34 50 95 67 137 49 116 64 116 143 -1z m-3127 43 c-3 -8 -6 -5 -6 6 -1 11 2
17 5 13 3 -3 4 -12 1 -19z m-362 -1037 c-8 -17 -18 -31 -21 -31 -3 0 -3 4 0 9
3 4 10 21 16 36 6 15 13 25 16 22 3 -3 -2 -19 -11 -36z m-66 -168 c-11 -38
-24 -88 -30 -113 -7 -25 -14 -40 -16 -33 -8 22 47 213 61 213 2 0 -5 -30 -15
-67z m4771 -208 c0 -8 -19 -23 -42 -33 -24 -10 -64 -35 -91 -55 -26 -21 -52
-37 -57 -37 -27 0 -4 34 57 84 52 43 75 56 100 56 22 0 33 -5 33 -15z m80 -20
c-44 -53 -284 -214 -298 -201 -9 9 12 29 77 71 36 24 93 66 126 94 35 29 70
51 84 51 20 0 22 -2 11 -15z m-4944 -46 c-15 -34 -15 -34 -9 -4 7 35 13 48 20
42 2 -3 -3 -20 -11 -38z m2957 34 c3 -5 -3 -24 -14 -43 -10 -19 -21 -43 -25
-52 -3 -10 -13 -18 -20 -18 -18 0 -18 0 10 65 23 51 38 66 49 48z m-363 -135
c0 -14 -140 -53 -245 -70 -113 -18 -270 9 -250 42 9 15 124 12 188 -5 58 -15
58 -15 115 15 46 23 70 29 125 30 47 0 67 -4 67 -12z m-2629 -39 c-5 -13 -10
-19 -10 -12 -1 15 10 45 15 40 3 -2 0 -15 -5 -28z m4613 -125 c34 -13 3 -105
-44 -129 -35 -18 -84 -92 -112 -167 -12 -34 -27 -58 -35 -58 -37 0 22 169 100
292 42 64 57 75 91 62z m-3200 -107 c113 -115 162 -178 171 -215 4 -18 29 -78
56 -133 27 -55 49 -104 49 -110 0 -21 -28 -19 -86 7 -58 26 -59 26 -36 41 27
19 28 39 3 52 -21 12 -51 -13 -51 -43 0 -26 -29 -31 -52 -8 -26 25 -19 36 42
67 63 32 69 43 38 69 -34 28 -145 172 -169 218 -23 46 -29 49 -68 42 l-31 -6
0 -112 c1 -76 5 -116 14 -128 26 -35 32 -18 28 82 -4 95 -1 109 24 92 22 -15
123 -141 116 -145 -4 -2 -19 -7 -34 -11 -21 -5 -28 -12 -28 -32 0 -34 24 -40
60 -14 18 13 38 19 48 15 15 -5 14 -9 -8 -25 -14 -10 -51 -32 -82 -47 -32 -15
-58 -34 -58 -41 0 -17 139 -113 200 -139 8 -3 36 -23 62 -45 27 -22 52 -36 58
-33 17 10 11 39 -10 53 -33 20 -26 44 12 40 30 -3 36 -10 76 -91 50 -100 47
-123 -10 -94 -18 9 -63 24 -100 32 -71 15 -212 87 -299 153 -27 20 -69 66 -94
103 -40 60 -45 73 -51 145 -8 101 6 184 47 273 44 98 58 97 163 -12z m3161
-106 c-4 -9 -17 -45 -30 -81 -66 -186 -130 -319 -146 -303 -9 9 48 194 75 243
8 14 20 51 27 83 7 35 20 64 32 72 24 17 51 8 42 -14z m-1318 -683 c13 -17 33
-167 33 -249 0 -41 5 -72 14 -85 15 -19 15 -19 30 1 20 27 20 48 -4 147 -23
98 -26 168 -7 168 19 0 56 -42 116 -131 28 -42 67 -88 85 -103 30 -23 35 -24
47 -10 11 13 10 19 -8 32 -22 18 -113 128 -113 137 0 3 4 5 9 5 18 0 416 -192
434 -209 17 -16 12 -19 -95 -68 -62 -28 -133 -57 -158 -64 -25 -7 -50 -16 -56
-20 -19 -15 -180 -38 -337 -49 -158 -12 -199 -10 -472 24 -155 20 -325 61
-325 80 0 4 92 60 170 104 30 17 73 47 95 68 74 68 139 112 245 162 116 56
170 72 170 50 0 -14 -68 -178 -100 -241 -21 -41 -17 -70 9 -65 9 2 18 17 22
38 3 19 22 68 42 107 20 40 37 77 37 82 0 5 9 30 20 55 17 42 22 46 53 46 19
0 39 -6 44 -12z m-2284 -155 c-13 -2 -35 -2 -50 0 -16 2 -5 4 22 4 28 0 40 -2
28 -4z m1147 -178 c0 -8 -2 -15 -4 -15 -2 0 -6 7 -10 15 -3 8 -1 15 4 15 6 0
10 -7 10 -15z m550 -266 c0 -66 -12 -75 -47 -36 -19 20 -38 119 -26 131 3 2
20 -5 39 -16 33 -19 34 -22 34 -79z m78 40 c18 -35 12 -164 -8 -164 -16 0 -47
152 -36 180 8 22 28 15 44 -16z m247 -19 c3 -5 1 -19 -5 -29 -6 -11 -12 -55
-15 -97 -5 -83 -7 -89 -27 -81 -18 6 -8 178 11 201 15 18 27 20 36 6z m672
-122 c-3 -20 -4 -21 -11 -5 -5 9 -5 29 0 45 7 25 8 26 11 5 3 -13 3 -33 0 -45z
m360 -349 c35 -28 62 -54 59 -57 -3 -2 -26 13 -52 34 -25 21 -56 47 -68 56
-11 10 -17 18 -12 18 4 0 37 -23 73 -51z m88 -69 c3 -5 4 -10 1 -10 -3 0 -8 5
-11 10 -3 6 -4 10 -1 10 3 0 8 -4 11 -10z m135 -60 c0 -5 -7 -7 -15 -4 -8 4
-15 8 -15 10 0 2 7 4 15 4 8 0 15 -4 15 -10z m-2856 -155 c-4 -8 -11 -15 -16
-15 -6 0 -5 6 2 15 7 8 14 15 16 15 2 0 1 -7 -2 -15z m-257 -287 c-41 -110
-70 -197 -88 -258 -41 -145 -97 -295 -106 -286 -8 8 179 556 189 556 6 0 8 -6
5 -12z"/>
<path d="M4246 5892 c-4 -7 12 -58 55 -172 18 -47 16 -45 37 -26 17 14 18 22
8 64 -6 27 -18 59 -27 73 -9 13 -19 34 -23 47 -7 21 -39 31 -50 14z"/>
<path d="M1217 5824 c-12 -12 6 -98 25 -126 22 -31 44 -38 33 -10 -4 9 -12 44
-19 76 -12 56 -24 75 -39 60z"/>
<path d="M1215 5511 c-3 -5 -1 -12 5 -16 5 -3 10 -15 10 -26 0 -25 47 -129 58
-129 27 0 28 24 4 83 -32 82 -60 114 -77 88z"/>
<path d="M973 4824 c-7 -20 46 -98 71 -102 16 -3 17 1 11 40 -9 61 -66 104
-82 62z"/>
<path d="M2040 5003 c-73 -31 -85 -39 -88 -61 -4 -27 2 -28 38 -2 16 11 47 29
70 39 31 14 37 21 28 28 -9 8 -24 6 -48 -4z"/>
<path d="M5040 4983 c0 -19 37 -42 140 -87 59 -26 108 -42 113 -37 15 15 -92
79 -177 106 -22 7 -49 16 -58 20 -10 4 -18 3 -18 -2z"/>
<path d="M4960 4916 c0 -23 293 -145 305 -127 7 12 -11 24 -90 56 -38 16 -96
41 -127 57 -63 31 -88 35 -88 14z"/>
<path d="M4540 4887 c0 -24 143 -58 200 -48 2 1 -1 6 -8 13 -12 12 -140 47
-174 48 -10 0 -18 -6 -18 -13z"/>
<path d="M4457 4863 c-16 -15 -4 -33 41 -61 26 -16 110 -84 187 -150 106 -93
146 -121 164 -119 46 4 32 26 -62 95 -52 39 -111 90 -131 115 -20 25 -68 63
-108 86 -74 43 -80 45 -91 34z"/>
<path d="M4896 4842 c-9 -14 13 -28 64 -42 25 -7 78 -30 118 -51 40 -22 78
-37 83 -33 19 11 -26 47 -107 85 -88 41 -148 56 -158 41z"/>
<path d="M4842 4804 c4 -20 206 -126 214 -112 9 15 -14 31 -118 84 -98 49
-101 50 -96 28z"/>
<path d="M4690 4750 c0 -11 6 -20 13 -20 19 0 133 -56 223 -110 85 -52 104
-59 103 -37 0 16 -179 144 -236 168 -61 26 -103 25 -103 -1z"/>
<path d="M1794 4729 c-9 -10 -68 -53 -131 -94 -62 -41 -113 -81 -113 -89 0 -7
6 -19 14 -25 12 -10 37 6 133 83 65 53 123 96 130 96 18 0 16 37 -1 43 -8 3
-22 -3 -32 -14z"/>
<path d="M1800 4637 c-152 -117 -430 -384 -430 -413 0 -22 13 -12 122 102 48
49 122 114 165 144 79 54 313 258 313 272 0 21 -36 -2 -170 -105z"/>
<path d="M1606 4703 c-8 -9 -85 -29 -154 -42 -24 -4 -48 -13 -54 -19 -7 -7
-24 -12 -39 -12 -34 0 -44 -13 -23 -31 13 -10 21 -10 47 0 63 25 71 26 62 5
-31 -76 -10 -83 60 -19 28 25 69 59 93 76 23 16 42 34 42 39 0 12 -23 13 -34
3z"/>
<path d="M5053 4563 c-7 -2 -13 -8 -13 -13 0 -15 102 -82 116 -76 18 7 18 36
0 36 -8 0 -24 14 -36 30 -20 28 -39 35 -67 23z"/>
<path d="M1395 4522 c-39 -8 -275 -222 -275 -248 0 -23 41 -16 79 13 76 57
241 207 241 219 0 15 -19 22 -45 16z"/>
<path d="M4940 4512 c0 -21 116 -126 130 -117 20 12 9 33 -44 84 -57 53 -86
64 -86 33z"/>
<path d="M1134 4435 c-43 -47 -79 -91 -79 -98 0 -6 9 -13 20 -15 14 -2 34 15
69 58 26 33 58 66 70 72 32 16 66 50 60 59 -3 5 -18 9 -33 9 -22 0 -44 -18
-107 -85z"/>
<path d="M1493 4487 c-11 -13 -29 -30 -39 -38 -40 -30 -244 -250 -244 -263 0
-31 32 -26 63 11 17 21 89 95 159 165 70 70 128 132 128 138 0 19 -46 10 -67
-13z"/>
<path d="M5164 3973 c-9 -14 -4 -26 23 -61 36 -47 40 -81 23 -177 -19 -103
-23 -145 -13 -145 18 0 30 22 52 94 30 97 28 185 -4 236 -14 22 -25 44 -25 49
0 8 -23 21 -38 21 -4 0 -12 -8 -18 -17z"/>
<path d="M5030 3745 c0 -67 2 -75 19 -75 24 0 31 19 31 79 0 47 -12 71 -37 71
-10 0 -13 -20 -13 -75z"/>
<path d="M5306 3719 c-38 -159 -127 -271 -336 -427 -119 -89 -190 -154 -190
-175 0 -23 3 -22 63 16 115 74 429 370 457 432 41 88 50 120 50 171 0 80 -23
71 -44 -17z"/>
<path d="M621 3561 c-16 -22 -81 -174 -81 -189 0 -2 7 -2 16 0 14 2 82 138
101 201 8 27 -13 20 -36 -12z"/>
<path d="M757 3538 c-65 -88 -77 -113 -77 -159 0 -44 18 -78 33 -62 4 3 7 33
7 65 0 52 5 66 40 118 22 32 40 61 40 64 0 16 -22 2 -43 -26z"/>
<path d="M884 3512 c-28 -19 -94 -133 -94 -162 0 -45 22 -33 37 19 7 23 28 65
48 92 19 27 35 51 35 54 0 7 -13 6 -26 -3z"/>
<path d="M5209 3404 c-13 -14 -106 -94 -206 -177 -101 -83 -179 -155 -174
-160 18 -18 66 9 159 92 83 72 175 151 201 171 14 11 61 79 61 89 0 18 -15 12
-41 -15z"/>
<path d="M573 3258 c-21 -24 -46 -136 -59 -260 -6 -62 -5 -69 25 -122 18 -31
38 -62 44 -69 7 -6 36 -39 65 -73 58 -68 141 -116 169 -98 21 13 19 28 -4 34
-52 14 -117 69 -168 142 -68 98 -89 167 -80 261 7 68 25 155 40 190 10 24 -8
21 -32 -5z"/>
<path d="M785 3220 c-4 -6 -9 -61 -12 -123 l-6 -112 32 -47 c72 -107 320 -249
288 -165 -3 8 -41 35 -85 61 -51 30 -97 67 -126 101 l-46 53 0 102 c0 96 -9
140 -30 140 -5 0 -12 -5 -15 -10z"/>
<path d="M906 3198 c-10 -15 -16 -44 -16 -84 0 -75 6 -94 31 -94 20 0 19 -2
23 167 1 34 -18 40 -38 11z"/>
<path d="M670 3173 c-6 -21 -16 -73 -22 -115 -11 -71 -10 -82 12 -152 23 -74
24 -76 89 -118 96 -63 168 -95 183 -80 16 16 1 30 -77 72 -78 42 -77 41 -119
111 -34 58 -36 65 -36 152 0 62 5 101 15 121 17 32 12 46 -15 46 -13 0 -22
-11 -30 -37z"/>
<path d="M492 2778 c-8 -8 3 -28 46 -78 45 -54 69 -73 117 -93 217 -93 332
-121 370 -93 25 18 25 18 -115 45 -126 24 -298 104 -321 150 -38 76 -68 98
-97 69z"/>
<path d="M470 2608 c0 -27 42 -63 123 -107 46 -25 81 -33 210 -50 172 -23 187
-24 187 -13 0 12 -306 80 -372 82 -4 0 -36 25 -72 55 -35 30 -67 55 -70 55 -3
0 -6 -10 -6 -22z"/>
<path d="M1180 2513 c-123 -18 -187 -44 -102 -42 56 1 147 23 145 34 -2 12
-10 13 -43 8z"/>
<path d="M460 2447 l0 -42 73 -28 c39 -15 109 -34 155 -42 95 -18 243 -17 249
2 3 9 -16 12 -69 12 -155 -1 -340 62 -381 128 -15 25 -27 13 -27 -30z"/>
<path d="M1117 2425 c-87 -13 -128 -36 -61 -34 64 2 169 23 167 34 -3 14 -17
14 -106 0z"/>
<path d="M1242 2399 c2 -8 19 -23 36 -34 17 -11 30 -24 29 -28 -2 -5 -23 -16
-48 -25 -52 -19 -96 -49 -87 -58 4 -3 26 1 50 10 24 8 59 18 78 21 90 16 90
16 90 42 0 16 10 29 30 41 16 9 30 21 30 25 0 15 -32 19 -55 7 -23 -12 -43
-11 -124 6 -26 6 -33 4 -29 -7z"/>
<path d="M1182 2353 c-16 -11 -55 -18 -122 -22 -58 -4 -104 -11 -112 -18 -6
-7 -20 -13 -30 -13 -10 0 -18 -7 -18 -16 0 -18 -10 -19 173 9 84 13 135 36
145 65 5 16 -8 14 -36 -5z"/>
<path d="M620 2269 c0 -24 121 -41 135 -19 8 13 -6 17 -77 23 -34 3 -58 2 -58
-4z"/>
<path d="M3516 3885 l-37 -45 22 -62 c30 -81 99 -161 99 -115 0 8 -9 22 -20
32 -28 26 -62 145 -41 145 6 0 11 -8 11 -19 0 -24 37 -71 56 -71 16 0 19 16 4
25 -5 3 -10 30 -10 58 0 49 -19 97 -39 97 -5 0 -25 -20 -45 -45z m31 -22 c-4
-3 -7 0 -7 7 0 7 3 10 7 7 3 -4 3 -10 0 -14z"/>
<path d="M3394 3852 c-26 -17 -34 -56 -34 -156 l0 -106 50 -37 50 -37 -35 -62
c-47 -83 -48 -157 -5 -294 17 -55 30 -117 30 -148 0 -57 19 -78 46 -50 13 12
13 24 0 90 -8 42 -23 92 -33 110 -13 24 -17 53 -16 107 1 70 3 76 29 95 16 12
40 21 54 22 14 0 37 4 53 8 20 6 27 5 27 -5 0 -17 135 -75 222 -96 42 -10 92
-13 153 -10 86 4 96 7 230 70 86 41 141 73 144 83 2 13 -2 15 -20 10 -13 -3
-148 -9 -299 -12 -151 -3 -303 -10 -338 -16 -35 -6 -65 -8 -68 -5 -11 11 87
56 170 77 102 26 205 24 363 -6 77 -15 94 -15 108 -4 23 19 14 33 -25 35 -19
1 -62 9 -95 18 -33 9 -96 18 -140 21 -44 3 -81 9 -83 15 -2 6 0 11 5 11 11 0
197 139 201 150 9 24 -24 17 -61 -13 -44 -36 -142 -93 -263 -152 -62 -30 -82
-35 -150 -36 -64 -1 -91 4 -139 24 -59 25 -60 26 -82 89 -17 47 -22 82 -20
137 2 72 -5 89 -29 73z m770 -458 c30 -12 16 -23 -56 -45 -48 -14 -98 -21
-148 -20 -77 0 -219 30 -223 47 -4 17 122 16 174 -1 51 -17 112 -14 179 11 41
15 53 16 74 8z"/>
<path d="M3685 3227 c-10 -8 -15 -19 -12 -24 4 -6 67 -38 142 -72 l135 -62 60
16 c59 15 59 15 110 -12 27 -16 50 -34 50 -40 0 -7 9 -13 20 -13 22 0 36 37
27 71 -4 16 6 34 39 69 50 54 54 65 19 56 -15 -4 -37 0 -55 9 -37 19 -64 19
-81 -1 -10 -12 -10 -20 -1 -35 24 -38 16 -42 -60 -35 -61 5 -76 10 -93 31 -25
30 -51 32 -58 4 -4 -16 -11 -19 -26 -14 -11 3 -40 7 -65 9 -28 1 -59 12 -85
29 -47 32 -42 31 -66 14z"/>
<path d="M3554 3049 c0 -43 7 -46 58 -25 12 6 24 -4 48 -38 34 -51 60 -60 60
-22 0 14 5 28 10 31 18 11 223 -132 296 -207 63 -64 75 -83 98 -151 14 -42 26
-84 26 -93 0 -9 6 -14 13 -12 8 3 13 29 14 74 3 61 -1 76 -30 129 -22 42 -54
78 -106 121 -108 91 -393 234 -465 234 -18 0 -21 -6 -22 -41z"/>
<path d="M3070 3071 c0 -4 -27 -20 -60 -35 -44 -20 -60 -32 -60 -47 0 -35 42
-21 105 36 50 46 56 55 38 55 -13 0 -23 -4 -23 -9z"/>
<path d="M3105 2939 c-19 -17 -35 -38 -35 -46 0 -13 3 -13 15 -3 8 7 27 10 42
7 26 -5 73 10 73 23 0 3 -13 16 -30 28 l-29 22 -36 -31z"/>
<path d="M3585 2943 c-23 -3 -99 -31 -133 -49 -10 -5 13 -34 28 -34 19 0 118
38 138 53 13 10 17 38 5 36 -5 -1 -21 -4 -38 -6z"/>
<path d="M2648 2853 c-219 -185 -288 -255 -288 -295 0 -34 17 -37 29 -5 8 21
225 223 294 274 32 24 42 53 21 60 -6 2 -31 -13 -56 -34z"/>
<path d="M3216 66 c-49 -56 -54 -66 -33 -66 6 0 22 16 35 35 31 48 62 48 62 0
0 -33 2 -35 34 -35 l33 0 -29 60 c-17 33 -36 60 -43 60 -7 0 -34 -24 -59 -54z"/>
<path d="M3460 24 l-44 -24 52 0 c40 0 52 4 52 15 0 8 0 18 1 22 1 14 -16 10
-61 -13z"/>
</g>
</svg>
