<?xml version="1.0" standalone="no"?>
<!DOCTYPE svg PUBLIC "-//W3C//DTD SVG 20010904//EN"
 "http://www.w3.org/TR/2001/REC-SVG-20010904/DTD/svg10.dtd">
<svg version="1.0" xmlns="http://www.w3.org/2000/svg"
 width="400.000000pt" height="600.000000pt" viewBox="0 0 400.000000 600.000000"
 preserveAspectRatio="xMidYMid meet">
<g transform="translate(0.000000,600.000000) scale(0.100000,-0.100000)"
fill="#000000" stroke="none">
<path d="M1745 5820 c3 -5 10 -10 16 -10 5 0 9 5 9 10 0 6 -7 10 -16 10 -8 0
-12 -4 -9 -10z"/>
<path d="M1715 5810 c-4 -6 -11 -8 -16 -4 -5 3 -21 -1 -34 -10 -16 -10 -26
-12 -30 -5 -5 7 -11 6 -20 -1 -13 -11 -44 -19 -87 -23 -10 -1 -18 -4 -18 -8 0
-4 -11 -9 -25 -11 -15 -3 -25 -1 -25 6 0 13 -209 14 -231 0 -12 -7 -12 -5 0 9
19 24 2 21 -26 -5 -12 -12 -32 -22 -42 -23 -34 -2 -125 -95 -140 -142 -8 -24
-22 -45 -33 -49 -10 -3 -16 -10 -12 -15 3 -6 -3 -20 -13 -32 -11 -12 -23 -29
-26 -38 -4 -11 -14 -15 -36 -11 -24 3 -31 0 -31 -12 0 -9 5 -16 10 -16 6 0 10
-5 10 -11 0 -6 -7 -9 -15 -5 -14 5 -20 -11 -16 -37 12 -74 9 -123 -9 -112 -4
2 -10 -9 -14 -26 l-6 -31 -19 23 -20 24 5 -40 c8 -64 6 -76 -16 -95 -13 -11
-18 -24 -13 -35 6 -16 2 -17 -30 -12 -41 6 -51 -12 -19 -35 31 -22 34 -36 12
-58 -16 -16 -19 -25 -11 -34 6 -7 12 -25 13 -40 1 -14 6 -26 11 -26 4 0 5 -5
2 -11 -4 -6 2 -13 14 -16 12 -3 21 -9 21 -14 0 -5 14 -9 30 -9 20 0 30 -5 30
-15 0 -9 11 -21 25 -27 22 -10 25 -16 20 -40 -5 -23 -3 -30 15 -36 12 -4 21
-12 20 -17 -1 -6 15 -14 34 -18 20 -5 36 -14 36 -21 0 -6 8 -27 18 -46 10 -19
29 -73 41 -120 36 -133 38 -133 38 15 -1 138 11 213 37 245 7 8 19 42 26 75 8
34 24 70 37 83 12 12 19 22 16 22 -3 0 0 6 6 14 9 11 9 15 0 18 -6 2 28 26 75
53 144 83 210 116 223 111 8 -3 10 1 6 11 -5 12 -2 15 8 11 9 -3 34 -3 57 2
24 4 45 3 48 -1 3 -5 57 -8 119 -5 98 3 118 1 144 -15 21 -13 31 -15 31 -6 0
9 2 9 9 -1 4 -7 12 -12 17 -11 17 5 62 -23 74 -47 7 -13 17 -21 22 -18 5 3 8
2 7 -3 -3 -12 23 -63 32 -63 12 0 119 -112 119 -125 0 -14 53 -45 78 -45 12 0
28 -12 38 -29 10 -17 28 -32 40 -35 12 -3 24 -16 28 -29 3 -12 15 -32 26 -45
11 -12 22 -35 23 -51 1 -16 5 -27 8 -25 4 2 10 -3 13 -12 3 -8 2 -12 -4 -9
-12 8 -12 1 0 -88 26 -177 51 -271 81 -302 16 -17 29 -39 29 -49 0 -9 5 -14
10 -11 6 4 8 14 6 23 -3 10 -2 23 3 31 10 16 -8 56 -35 75 -17 13 -17 15 0 41
19 29 17 45 -4 20 -23 -27 -40 -18 -40 23 0 42 13 68 28 58 16 -10 41 4 40 22
0 21 49 239 61 267 25 60 43 123 42 143 0 12 5 22 13 22 24 0 46 47 46 99 0
27 4 51 9 53 11 4 16 77 7 98 -3 8 -10 36 -15 63 -7 37 -5 49 6 55 12 7 12 12
-2 38 -8 16 -15 34 -15 40 0 6 -11 21 -24 33 -16 15 -27 39 -31 71 -6 46 -9
49 -38 52 -21 2 -33 9 -37 23 -8 31 -33 65 -49 65 -18 0 -100 91 -101 111 0 9
-7 22 -15 29 -12 10 -15 10 -15 -2 0 -17 -58 -21 -78 -5 -11 8 -11 12 0 19 9
7 4 8 -15 5 -20 -3 -25 -1 -17 8 15 18 1 25 -41 19 -58 -10 -89 2 -89 31 0 14
-4 25 -10 25 -6 0 -9 -3 -9 -7 1 -5 1 -15 0 -23 -1 -12 -4 -12 -12 3 -5 9 -8
21 -5 26 12 19 -46 19 -65 0 -19 -19 -19 -19 -39 1 -23 23 -20 22 -188 22
-102 0 -123 2 -118 14 6 16 0 19 -9 4z m290 -50 c3 -5 1 -10 -4 -10 -6 0 -11
5 -11 10 0 6 2 10 4 10 3 0 8 -4 11 -10z m262 -127 c-4 -3 -10 -3 -14 0 -3 4
0 7 7 7 7 0 10 -3 7 -7z"/>
<path d="M1293 5793 c4 -3 10 -3 14 0 3 4 0 7 -7 7 -7 0 -10 -3 -7 -7z"/>
<path d="M2010 4700 c-19 -4 -30 -8 -25 -10 6 -1 -38 -10 -96 -20 -109 -18
-183 -45 -173 -62 3 -5 -4 -20 -15 -32 -18 -19 -20 -28 -12 -49 6 -15 15 -27
21 -27 5 0 10 -7 10 -15 0 -8 8 -19 19 -24 10 -6 22 -25 25 -43 l7 -33 16 23
c8 12 22 22 29 22 16 0 18 -22 4 -36 -18 -18 70 -46 180 -59 44 -5 126 21 162
51 15 12 40 25 56 28 29 7 57 40 47 56 -4 6 -16 10 -28 10 -12 0 -46 9 -75 20
-29 11 -71 20 -95 21 -44 1 -107 16 -74 18 9 1 16 4 16 9 -4 25 3 42 19 42 9
1 35 9 57 20 23 11 42 14 44 9 1 -6 9 -2 15 7 12 15 15 15 47 0 33 -15 89 -19
89 -6 0 18 -53 50 -112 69 -69 22 -98 24 -158 11z m37 -196 c-3 -3 -12 -4 -19
-1 -8 3 -5 6 6 6 11 1 17 -2 13 -5z m-93 -60 c9 -22 2 -27 -24 -19 -17 5 -19
10 -9 21 15 18 25 18 33 -2z m-21 -41 c-7 -2 -19 -2 -25 0 -7 3 -2 5 12 5 14
0 19 -2 13 -5z m94 0 c-4 -3 -10 -3 -14 0 -3 4 0 7 7 7 7 0 10 -3 7 -7z"/>
<path d="M1517 4643 c-3 -4 -63 -8 -134 -7 -137 1 -173 -7 -245 -54 -31 -20
-38 -30 -38 -58 0 -27 3 -32 18 -27 9 3 31 19 48 35 l32 30 47 -21 c26 -12 53
-21 59 -21 6 0 19 -7 29 -15 18 -13 16 -15 -23 -35 -23 -12 -48 -19 -56 -16
-9 3 -12 1 -9 -4 3 -6 -1 -10 -9 -10 -9 0 -34 -16 -56 -37 -33 -29 -40 -42
-38 -66 3 -26 9 -32 53 -45 89 -27 160 -22 242 18 65 31 72 38 68 58 -4 17 -2
23 7 20 7 -3 13 -14 13 -26 0 -11 4 -24 8 -28 15 -15 27 20 25 68 -1 26 4 53
11 62 17 20 16 87 -1 118 -24 42 -46 69 -51 61z m-172 -192 c-15 -13 -62 -26
-50 -13 6 5 19 12 30 15 11 3 22 5 25 6 2 0 0 -3 -5 -8z m90 -61 c3 -5 1 -10
-4 -10 -6 0 -11 5 -11 10 0 6 2 10 4 10 3 0 8 -4 11 -10z m-130 -31 c10 -15
-1 -23 -20 -15 -9 3 -13 10 -10 16 8 13 22 13 30 -1z m102 -16 c-4 -3 -7 0 -7
7 0 7 3 10 7 7 3 -4 3 -10 0 -14z"/>
<path d="M2607 4362 c-16 -17 -16 -22 -2 -62 8 -23 15 -51 15 -62 0 -43 18 -5
23 51 4 33 8 65 9 72 5 21 -27 21 -45 1z"/>
<path d="M1040 4246 c0 -26 22 -76 31 -70 13 8 11 58 -3 72 -16 16 -28 15 -28
-2z"/>
<path d="M2503 4090 c2 -8 0 -23 -4 -32 -5 -9 -6 -24 -3 -33 5 -13 9 -11 20
11 12 22 12 29 -2 47 -9 12 -14 15 -11 7z"/>
<path d="M1705 4070 c-3 -5 -3 -10 1 -10 4 0 0 -8 -10 -19 -11 -12 -25 -16
-41 -13 -14 2 -31 -1 -39 -7 -11 -9 -18 -6 -34 16 l-20 27 -41 -43 c-22 -23
-41 -46 -41 -50 0 -12 35 -41 48 -41 7 0 12 6 12 13 0 8 12 19 26 26 23 10 29
9 46 -9 20 -22 40 -25 66 -11 15 8 18 5 17 -17 0 -31 27 -41 50 -18 19 19 19
30 0 46 -24 20 -12 22 29 5 41 -17 71 -13 80 12 8 20 -37 62 -75 70 -16 3 -34
12 -40 19 -14 17 -25 18 -34 4z"/>
<path d="M2500 3940 c0 -12 -4 -19 -9 -16 -9 6 -31 -36 -31 -59 0 -8 -5 -15
-10 -15 -7 0 -9 -14 -5 -37 5 -28 4 -34 -4 -23 -9 12 -11 12 -11 1 0 -11 -5
-10 -20 4 -23 21 -45 10 -30 -15 7 -10 10 -11 10 -2 0 6 5 12 11 12 7 0 8 -7
4 -17 -5 -10 -9 -27 -10 -38 -1 -17 -20 -61 -31 -74 -3 -3 -10 4 -18 14 -17
23 -32 14 -39 -25 -5 -23 -10 -28 -23 -23 -11 4 -15 2 -11 -4 9 -15 -3 -44
-14 -37 -5 3 -9 0 -9 -6 0 -7 -6 -8 -19 0 -25 13 -63 14 -42 1 11 -7 11 -9 0
-14 -11 -4 -11 -6 -1 -6 8 -1 10 -6 6 -13 -5 -7 -7 -26 -6 -43 2 -20 -5 -38
-21 -56 -13 -14 -29 -35 -36 -47 -7 -13 -17 -19 -27 -15 -8 3 -29 -4 -45 -16
-16 -12 -33 -20 -38 -17 -5 3 -14 0 -20 -8 -14 -17 -194 -14 -216 4 -18 15
-98 17 -128 2 -30 -14 -75 -25 -112 -27 -17 0 -35 -4 -40 -7 -14 -8 -75 18
-75 32 0 6 -5 8 -10 5 -6 -3 -13 1 -16 10 -4 9 -13 14 -22 10 -8 -3 -23 3 -33
14 -11 12 -14 21 -8 23 7 2 3 17 -9 40 -11 20 -18 39 -15 42 4 3 -1 6 -10 6
-10 0 -18 5 -18 10 -1 6 -2 14 -3 19 0 5 -4 13 -8 17 -5 4 -8 13 -8 20 0 17
-50 67 -50 51 -1 -7 -7 -1 -15 13 -9 16 -15 20 -16 10 -1 -8 -5 5 -10 30 -5
24 -18 53 -30 65 l-21 20 7 -39 c14 -83 83 -206 155 -276 45 -44 97 -119 105
-153 6 -24 102 -123 116 -119 13 3 36 -34 47 -75 10 -33 22 -47 63 -74 38 -24
47 -34 37 -41 -9 -7 -4 -8 15 -5 15 2 27 0 27 -6 0 -6 -18 -7 -42 -4 l-43 5
37 -17 c30 -13 34 -18 23 -28 -8 -7 -19 -13 -25 -13 -6 0 -9 -4 -5 -9 3 -5 1
-12 -5 -16 -6 -4 -7 -12 -3 -18 4 -7 8 -16 8 -21 0 -23 61 -25 130 -5 39 12
80 22 92 23 11 0 19 4 16 9 -2 4 4 10 13 14 10 3 26 15 36 25 10 10 24 18 32
18 7 0 19 7 26 15 15 18 3 19 -36 5 -21 -8 -29 -8 -36 2 -10 16 -10 28 0 27
19 -3 33 2 28 10 -3 5 9 16 28 25 19 9 36 22 39 31 7 15 87 71 99 67 5 -1 7 1
6 6 -5 17 14 51 32 57 20 6 80 59 80 70 0 4 21 25 46 48 40 36 60 65 70 102 1
6 9 30 18 54 9 24 16 50 16 58 0 8 15 37 33 66 18 29 37 61 41 72 11 29 46
196 46 223 0 17 6 22 27 22 25 0 25 1 10 18 -10 10 -17 24 -17 30 0 6 -4 14
-10 17 -5 3 -10 -3 -10 -15z"/>
<path d="M1568 3943 c-10 -2 -18 -8 -18 -13 0 -5 -7 -16 -16 -25 -26 -25 -4
-39 50 -31 25 4 46 11 46 17 0 5 -5 9 -10 9 -7 0 -7 7 1 21 7 13 7 19 1 15 -6
-3 -13 -2 -17 4 -6 10 -9 11 -37 3z"/>
<path d="M1721 3822 c-14 -2 -34 -10 -45 -18 -14 -9 -26 -10 -36 -4 -37 24
-119 0 -140 -40 -16 -30 -48 -27 -43 4 6 29 -10 41 -30 22 -8 -8 -17 -13 -19
-10 -3 2 -14 -8 -24 -23 -12 -19 -19 -50 -21 -94 -2 -60 0 -67 17 -72 12 -3
20 -1 19 6 -3 27 2 36 29 46 15 6 34 15 42 20 46 27 111 50 155 55 121 13 163
14 205 4 25 -5 61 -11 80 -13 19 -2 50 -6 69 -11 20 -4 32 -3 30 2 -3 5 -11
21 -19 37 -10 21 -11 30 -2 39 15 15 16 48 1 48 -13 0 -44 -30 -32 -31 4 0 -5
-5 -21 -9 -23 -7 -44 -4 -90 14 -73 28 -93 33 -125 28z"/>
<path d="M2035 3771 c3 -10 1 -30 -4 -43 -11 -30 11 -71 33 -62 11 4 11 15 -2
65 -9 32 -20 59 -25 59 -4 0 -6 -8 -2 -19z"/>
<path d="M1643 3615 c-10 -7 -15 -17 -10 -21 4 -4 0 -15 -9 -25 -8 -9 -16 -24
-18 -32 -1 -8 -8 -22 -15 -31 -11 -13 -9 -16 13 -22 14 -3 33 -4 41 -1 8 4 17
2 21 -4 3 -6 11 -3 20 8 13 17 14 17 20 -6 7 -22 8 -23 20 -6 10 14 16 15 27
6 11 -8 22 -8 48 0 19 7 35 13 37 15 6 4 -21 49 -34 57 -8 4 -14 15 -14 23 0
8 -4 12 -10 9 -5 -3 -10 -1 -10 6 0 6 -8 9 -19 6 -12 -3 -18 1 -17 12 1 21
-65 25 -91 6z m177 -95 c0 -5 -2 -10 -4 -10 -3 0 -8 5 -11 10 -3 6 -1 10 4 10
6 0 11 -4 11 -10z"/>
<path d="M2496 3363 c4 -14 7 -67 8 -117 l1 -91 -73 -140 c-41 -77 -78 -141
-83 -143 -5 -2 -9 -10 -9 -17 0 -7 -11 -27 -25 -43 -14 -17 -25 -35 -25 -41 0
-6 -4 -11 -9 -11 -5 0 -13 -10 -17 -22 -4 -13 -20 -42 -35 -65 -16 -23 -29
-44 -29 -48 0 -3 -11 -23 -25 -44 -22 -33 -36 -41 -98 -59 -222 -66 -456 -51
-582 37 -44 30 -44 33 -31 146 12 92 12 92 57 36 22 -28 45 -51 50 -51 15 0
-1 49 -38 113 -18 32 -33 63 -33 68 0 5 -4 9 -8 9 -5 0 -14 22 -21 49 -7 28
-19 55 -26 61 -8 7 -20 38 -26 71 -6 32 -14 59 -18 59 -3 0 -19 -20 -35 -45
-47 -75 -125 -146 -196 -178 -36 -16 -157 -73 -270 -127 -192 -92 -493 -223
-569 -249 -124 -41 -208 -196 -246 -451 -9 -63 -32 -184 -51 -268 l-34 -154 0
-824 0 -824 2000 0 2000 0 -2 1162 -3 1162 -35 23 c-19 12 -42 29 -50 36 -25
22 -134 86 -230 134 -30 16 -57 31 -60 35 -3 4 -23 15 -45 25 -22 10 -60 30
-85 44 -38 22 -228 126 -490 267 -36 19 -74 40 -85 46 -11 6 -24 17 -28 24 -5
7 -27 35 -50 61 -42 49 -100 124 -193 255 -52 73 -102 116 -136 116 -15 0 -17
-5 -12 -27z"/>
</g>
</svg>
